<?xml version="1.0" encoding="UTF-8" standalone="no"?>
<!DOCTYPE svg PUBLIC "-//W3C//DTD SVG 1.1//EN"
 "http://www.w3.org/Graphics/SVG/1.1/DTD/svg11.dtd">
<!-- Generated by graphviz version 2.47.3 (20210619.1520)
 -->
<!-- Title: dependencies Pages: 1 -->
<svg width="190pt" height="247pt"
 viewBox="0.00 0.00 190.00 246.80" xmlns="http://www.w3.org/2000/svg" xmlns:xlink="http://www.w3.org/1999/xlink">
<g id="graph0" class="graph" transform="scale(1 1) rotate(0) translate(4 242.8)">
<title>dependencies</title>
<polygon fill="white" stroke="transparent" points="-4,4 -4,-242.8 186,-242.8 186,4 -4,4"/>
<text text-anchor="middle" x="91" y="-8.2" font-family="sans-serif" font-size="14.00">dependencies</text>
<g id="clust1" class="cluster">
<title>cluster_NetworkModule</title>
<polygon fill="none" stroke="black" stroke-dasharray="1,5" points="8,-32.8 8,-230.8 174,-230.8 174,-32.8 8,-32.8"/>
</g>
<g id="clust2" class="cluster">
<title>cluster_NetworkModule_declarations</title>
<polygon fill="none" stroke="black" points="18,-40.8 18,-92.8 164,-92.8 164,-40.8 18,-40.8"/>
</g>
<g id="clust5" class="cluster">
<title>cluster_NetworkModule_exports</title>
<polygon fill="none" stroke="black" points="16,-170.8 16,-222.8 166,-222.8 166,-170.8 16,-170.8"/>
</g>
<!-- NetworkComponent -->
<g id="node1" class="node">
<title>NetworkComponent</title>
<polygon fill="#ffffb3" stroke="black" points="156.31,-84.8 25.69,-84.8 25.69,-48.8 156.31,-48.8 156.31,-84.8"/>
<text text-anchor="middle" x="91" y="-62.6" font-family="Times,serif" font-size="14.00">NetworkComponent</text>
</g>
<!-- NetworkModule -->
<g id="node2" class="node">
<title>NetworkModule</title>
<polygon fill="#8dd3c7" stroke="black" points="145.03,-149.8 142.03,-153.8 121.03,-153.8 118.03,-149.8 36.97,-149.8 36.97,-113.8 145.03,-113.8 145.03,-149.8"/>
<text text-anchor="middle" x="91" y="-127.6" font-family="Times,serif" font-size="14.00">NetworkModule</text>
</g>
<!-- NetworkComponent&#45;&gt;NetworkModule -->
<g id="edge1" class="edge">
<title>NetworkComponent&#45;&gt;NetworkModule</title>
<path fill="none" stroke="black" d="M91,-84.91C91,-84.91 91,-103.79 91,-103.79"/>
<polygon fill="black" stroke="black" points="87.5,-103.79 91,-113.79 94.5,-103.79 87.5,-103.79"/>
</g>
<!-- NetworkComponent  -->
<g id="node3" class="node">
<title>NetworkComponent </title>
<polygon fill="#fb8072" stroke="black" points="157.81,-214.8 24.19,-214.8 24.19,-178.8 157.81,-178.8 157.81,-214.8"/>
<text text-anchor="middle" x="91" y="-192.6" font-family="Times,serif" font-size="14.00">NetworkComponent </text>
</g>
<!-- NetworkModule&#45;&gt;NetworkComponent  -->
<g id="edge2" class="edge">
<title>NetworkModule&#45;&gt;NetworkComponent </title>
<path fill="none" stroke="black" stroke-dasharray="5,2" d="M91,-149.91C91,-149.91 91,-168.79 91,-168.79"/>
<polygon fill="black" stroke="black" points="87.5,-168.79 91,-178.79 94.5,-168.79 87.5,-168.79"/>
</g>
</g>
</svg>
