<?xml version="1.0" encoding="UTF-8" standalone="no"?>
<!DOCTYPE svg PUBLIC "-//W3C//DTD SVG 1.1//EN"
 "http://www.w3.org/Graphics/SVG/1.1/DTD/svg11.dtd">
<!-- Generated by graphviz version 2.47.3 (20210619.1520)
 -->
<!-- Title: dependencies Pages: 1 -->
<svg width="660pt" height="174pt"
 viewBox="0.00 0.00 660.00 173.80" xmlns="http://www.w3.org/2000/svg" xmlns:xlink="http://www.w3.org/1999/xlink">
<g id="graph0" class="graph" transform="scale(1 1) rotate(0) translate(4 169.8)">
<title>dependencies</title>
<polygon fill="white" stroke="transparent" points="-4,4 -4,-169.8 656,-169.8 656,4 -4,4"/>
<text text-anchor="middle" x="326" y="-8.2" font-family="sans-serif" font-size="14.00">dependencies</text>
<g id="clust1" class="cluster">
<title>cluster_VisualizerModule</title>
<polygon fill="none" stroke="black" stroke-dasharray="1,5" points="8,-32.8 8,-157.8 644,-157.8 644,-32.8 8,-32.8"/>
</g>
<g id="clust2" class="cluster">
<title>cluster_VisualizerModule_declarations</title>
<polygon fill="none" stroke="black" points="482,-40.8 482,-92.8 636,-92.8 636,-40.8 482,-40.8"/>
</g>
<g id="clust4" class="cluster">
<title>cluster_VisualizerModule_imports</title>
<polygon fill="none" stroke="black" points="192,-40.8 192,-92.8 474,-92.8 474,-40.8 192,-40.8"/>
</g>
<g id="clust7" class="cluster">
<title>cluster_VisualizerModule_providers</title>
<polygon fill="none" stroke="black" points="16,-40.8 16,-92.8 184,-92.8 184,-40.8 16,-40.8"/>
</g>
<!-- VisualizerComponent -->
<g id="node1" class="node">
<title>VisualizerComponent</title>
<polygon fill="#ffffb3" stroke="black" points="628.36,-84.8 489.64,-84.8 489.64,-48.8 628.36,-48.8 628.36,-84.8"/>
<text text-anchor="middle" x="559" y="-62.6" font-family="Times,serif" font-size="14.00">VisualizerComponent</text>
</g>
<!-- VisualizerModule -->
<g id="node2" class="node">
<title>VisualizerModule</title>
<polygon fill="#8dd3c7" stroke="black" points="410.58,-149.8 407.58,-153.8 386.58,-153.8 383.58,-149.8 293.42,-149.8 293.42,-113.8 410.58,-113.8 410.58,-149.8"/>
<text text-anchor="middle" x="352" y="-127.6" font-family="Times,serif" font-size="14.00">VisualizerModule</text>
</g>
<!-- VisualizerComponent&#45;&gt;VisualizerModule -->
<g id="edge1" class="edge">
<title>VisualizerComponent&#45;&gt;VisualizerModule</title>
<path fill="none" stroke="black" d="M559,-84.91C559,-104.14 559,-131.8 559,-131.8 559,-131.8 420.76,-131.8 420.76,-131.8"/>
<polygon fill="black" stroke="black" points="420.76,-128.3 410.76,-131.8 420.76,-135.3 420.76,-128.3"/>
</g>
<!-- MapModule -->
<g id="node3" class="node">
<title>MapModule</title>
<polygon fill="#8dd3c7" stroke="black" points="465.71,-84.8 462.71,-88.8 441.71,-88.8 438.71,-84.8 380.29,-84.8 380.29,-48.8 465.71,-48.8 465.71,-84.8"/>
<text text-anchor="middle" x="423" y="-62.6" font-family="Times,serif" font-size="14.00">MapModule</text>
</g>
<!-- MapModule&#45;&gt;VisualizerModule -->
<g id="edge2" class="edge">
<title>MapModule&#45;&gt;VisualizerModule</title>
<path fill="none" stroke="black" d="M395.47,-84.91C395.47,-84.91 395.47,-103.79 395.47,-103.79"/>
<polygon fill="black" stroke="black" points="391.97,-103.79 395.47,-113.79 398.97,-103.79 391.97,-103.79"/>
</g>
<!-- VisualizerRoutingModule -->
<g id="node4" class="node">
<title>VisualizerRoutingModule</title>
<polygon fill="#8dd3c7" stroke="black" points="362.2,-84.8 359.2,-88.8 338.2,-88.8 335.2,-84.8 199.8,-84.8 199.8,-48.8 362.2,-48.8 362.2,-84.8"/>
<text text-anchor="middle" x="281" y="-62.6" font-family="Times,serif" font-size="14.00">VisualizerRoutingModule</text>
</g>
<!-- VisualizerRoutingModule&#45;&gt;VisualizerModule -->
<g id="edge3" class="edge">
<title>VisualizerRoutingModule&#45;&gt;VisualizerModule</title>
<path fill="none" stroke="black" d="M327.78,-84.91C327.78,-84.91 327.78,-103.79 327.78,-103.79"/>
<polygon fill="black" stroke="black" points="324.28,-103.79 327.78,-113.79 331.28,-103.79 324.28,-103.79"/>
</g>
<!-- MapDataService -->
<g id="node5" class="node">
<title>MapDataService</title>
<ellipse fill="#fdb462" stroke="black" cx="100" cy="-66.8" rx="75.84" ry="18"/>
<text text-anchor="middle" x="100" y="-62.6" font-family="Times,serif" font-size="14.00">MapDataService</text>
</g>
<!-- MapDataService&#45;&gt;VisualizerModule -->
<g id="edge4" class="edge">
<title>MapDataService&#45;&gt;VisualizerModule</title>
<path fill="none" stroke="black" d="M100,-84.91C100,-104.14 100,-131.8 100,-131.8 100,-131.8 283.24,-131.8 283.24,-131.8"/>
<polygon fill="black" stroke="black" points="283.24,-135.3 293.24,-131.8 283.24,-128.3 283.24,-135.3"/>
</g>
</g>
</svg>
