<?xml version="1.0" encoding="UTF-8" standalone="no"?>
<!DOCTYPE svg PUBLIC "-//W3C//DTD SVG 1.1//EN"
 "http://www.w3.org/Graphics/SVG/1.1/DTD/svg11.dtd">
<!-- Generated by graphviz version 2.47.3 (20210619.1520)
 -->
<!-- Title: dependencies Pages: 1 -->
<svg width="786pt" height="174pt"
 viewBox="0.00 0.00 786.00 173.80" xmlns="http://www.w3.org/2000/svg" xmlns:xlink="http://www.w3.org/1999/xlink">
<g id="graph0" class="graph" transform="scale(1 1) rotate(0) translate(4 169.8)">
<title>dependencies</title>
<polygon fill="white" stroke="transparent" points="-4,4 -4,-169.8 782,-169.8 782,4 -4,4"/>
<text text-anchor="middle" x="389" y="-8.2" font-family="sans-serif" font-size="14.00">dependencies</text>
<g id="clust1" class="cluster">
<title>cluster_VisualizerModule</title>
<polygon fill="none" stroke="black" stroke-dasharray="1,5" points="8,-32.8 8,-157.8 770,-157.8 770,-32.8 8,-32.8"/>
</g>
<g id="clust2" class="cluster">
<title>cluster_VisualizerModule_declarations</title>
<polygon fill="none" stroke="black" points="608,-40.8 608,-92.8 762,-92.8 762,-40.8 608,-40.8"/>
</g>
<g id="clust7" class="cluster">
<title>cluster_VisualizerModule_providers</title>
<polygon fill="none" stroke="black" points="432,-40.8 432,-92.8 600,-92.8 600,-40.8 432,-40.8"/>
</g>
<g id="clust4" class="cluster">
<title>cluster_VisualizerModule_imports</title>
<polygon fill="none" stroke="black" points="16,-40.8 16,-92.8 424,-92.8 424,-40.8 16,-40.8"/>
</g>
<!-- VisualizerComponent -->
<g id="node1" class="node">
<title>VisualizerComponent</title>
<polygon fill="#ffffb3" stroke="black" points="754.36,-84.8 615.64,-84.8 615.64,-48.8 754.36,-48.8 754.36,-84.8"/>
<text text-anchor="middle" x="685" y="-62.6" font-family="Times,serif" font-size="14.00">VisualizerComponent</text>
</g>
<!-- VisualizerModule -->
<g id="node2" class="node">
<title>VisualizerModule</title>
<polygon fill="#8dd3c7" stroke="black" points="431.58,-149.8 428.58,-153.8 407.58,-153.8 404.58,-149.8 314.42,-149.8 314.42,-113.8 431.58,-113.8 431.58,-149.8"/>
<text text-anchor="middle" x="373" y="-127.6" font-family="Times,serif" font-size="14.00">VisualizerModule</text>
</g>
<!-- VisualizerComponent&#45;&gt;VisualizerModule -->
<g id="edge1" class="edge">
<title>VisualizerComponent&#45;&gt;VisualizerModule</title>
<path fill="none" stroke="black" d="M685,-84.91C685,-104.14 685,-131.8 685,-131.8 685,-131.8 441.68,-131.8 441.68,-131.8"/>
<polygon fill="black" stroke="black" points="441.68,-128.3 431.68,-131.8 441.68,-135.3 441.68,-128.3"/>
</g>
<!-- MapModule -->
<g id="node3" class="node">
<title>MapModule</title>
<polygon fill="#8dd3c7" stroke="black" points="415.71,-84.8 412.71,-88.8 391.71,-88.8 388.71,-84.8 330.29,-84.8 330.29,-48.8 415.71,-48.8 415.71,-84.8"/>
<text text-anchor="middle" x="373" y="-62.6" font-family="Times,serif" font-size="14.00">MapModule</text>
</g>
<!-- MapModule&#45;&gt;VisualizerModule -->
<g id="edge2" class="edge">
<title>MapModule&#45;&gt;VisualizerModule</title>
<path fill="none" stroke="black" d="M373,-84.91C373,-84.91 373,-103.79 373,-103.79"/>
<polygon fill="black" stroke="black" points="369.5,-103.79 373,-113.79 376.5,-103.79 369.5,-103.79"/>
</g>
<!-- NetworkModule -->
<g id="node4" class="node">
<title>NetworkModule</title>
<polygon fill="#8dd3c7" stroke="black" points="312.03,-84.8 309.03,-88.8 288.03,-88.8 285.03,-84.8 203.97,-84.8 203.97,-48.8 312.03,-48.8 312.03,-84.8"/>
<text text-anchor="middle" x="258" y="-62.6" font-family="Times,serif" font-size="14.00">NetworkModule</text>
</g>
<!-- NetworkModule&#45;&gt;VisualizerModule -->
<g id="edge3" class="edge">
<title>NetworkModule&#45;&gt;VisualizerModule</title>
<path fill="none" stroke="black" d="M312.08,-66.8C318.27,-66.8 322.43,-66.8 322.43,-66.8 322.43,-66.8 322.43,-103.69 322.43,-103.69"/>
<polygon fill="black" stroke="black" points="318.93,-103.69 322.43,-113.69 325.93,-103.69 318.93,-103.69"/>
</g>
<!-- VisualizerRoutingModule -->
<g id="node5" class="node">
<title>VisualizerRoutingModule</title>
<polygon fill="#8dd3c7" stroke="black" points="186.2,-84.8 183.2,-88.8 162.2,-88.8 159.2,-84.8 23.8,-84.8 23.8,-48.8 186.2,-48.8 186.2,-84.8"/>
<text text-anchor="middle" x="105" y="-62.6" font-family="Times,serif" font-size="14.00">VisualizerRoutingModule</text>
</g>
<!-- VisualizerRoutingModule&#45;&gt;VisualizerModule -->
<g id="edge4" class="edge">
<title>VisualizerRoutingModule&#45;&gt;VisualizerModule</title>
<path fill="none" stroke="black" d="M105,-84.91C105,-104.14 105,-131.8 105,-131.8 105,-131.8 304.19,-131.8 304.19,-131.8"/>
<polygon fill="black" stroke="black" points="304.19,-135.3 314.19,-131.8 304.19,-128.3 304.19,-135.3"/>
</g>
<!-- MapDataService -->
<g id="node6" class="node">
<title>MapDataService</title>
<ellipse fill="#fdb462" stroke="black" cx="516" cy="-66.8" rx="75.84" ry="18"/>
<text text-anchor="middle" x="516" y="-62.6" font-family="Times,serif" font-size="14.00">MapDataService</text>
</g>
<!-- MapDataService&#45;&gt;VisualizerModule -->
<g id="edge5" class="edge">
<title>MapDataService&#45;&gt;VisualizerModule</title>
<path fill="none" stroke="black" d="M439.67,-66.8C430.09,-66.8 423.57,-66.8 423.57,-66.8 423.57,-66.8 423.57,-103.69 423.57,-103.69"/>
<polygon fill="black" stroke="black" points="420.07,-103.69 423.57,-113.69 427.07,-103.69 420.07,-103.69"/>
</g>
</g>
</svg>
