<?xml version="1.0" encoding="UTF-8" standalone="no"?>
<!DOCTYPE svg PUBLIC "-//W3C//DTD SVG 1.1//EN"
 "http://www.w3.org/Graphics/SVG/1.1/DTD/svg11.dtd">
<!-- Generated by graphviz version 2.47.3 (20210619.1520)
 -->
<!-- Title: dependencies Pages: 1 -->
<svg width="788pt" height="174pt"
 viewBox="0.00 0.00 788.00 173.80" xmlns="http://www.w3.org/2000/svg" xmlns:xlink="http://www.w3.org/1999/xlink">
<g id="graph0" class="graph" transform="scale(1 1) rotate(0) translate(4 169.8)">
<title>dependencies</title>
<polygon fill="white" stroke="transparent" points="-4,4 -4,-169.8 784,-169.8 784,4 -4,4"/>
<text text-anchor="middle" x="390" y="-8.2" font-family="sans-serif" font-size="14.00">dependencies</text>
<g id="clust1" class="cluster">
<title>cluster_VisualizerModule</title>
<polygon fill="none" stroke="black" stroke-dasharray="1,5" points="8,-32.8 8,-157.8 772,-157.8 772,-32.8 8,-32.8"/>
</g>
<g id="clust4" class="cluster">
<title>cluster_VisualizerModule_imports</title>
<polygon fill="none" stroke="black" points="354,-40.8 354,-92.8 764,-92.8 764,-40.8 354,-40.8"/>
</g>
<g id="clust7" class="cluster">
<title>cluster_VisualizerModule_providers</title>
<polygon fill="none" stroke="black" points="178,-40.8 178,-92.8 346,-92.8 346,-40.8 178,-40.8"/>
</g>
<g id="clust2" class="cluster">
<title>cluster_VisualizerModule_declarations</title>
<polygon fill="none" stroke="black" points="16,-40.8 16,-92.8 170,-92.8 170,-40.8 16,-40.8"/>
</g>
<!-- VisualizerComponent -->
<g id="node1" class="node">
<title>VisualizerComponent</title>
<polygon fill="#ffffb3" stroke="black" points="162.36,-84.8 23.64,-84.8 23.64,-48.8 162.36,-48.8 162.36,-84.8"/>
<text text-anchor="middle" x="93" y="-62.6" font-family="Times,serif" font-size="14.00">VisualizerComponent</text>
</g>
<!-- VisualizerModule -->
<g id="node2" class="node">
<title>VisualizerModule</title>
<polygon fill="#8dd3c7" stroke="black" points="501.58,-149.8 498.58,-153.8 477.58,-153.8 474.58,-149.8 384.42,-149.8 384.42,-113.8 501.58,-113.8 501.58,-149.8"/>
<text text-anchor="middle" x="443" y="-127.6" font-family="Times,serif" font-size="14.00">VisualizerModule</text>
</g>
<!-- VisualizerComponent&#45;&gt;VisualizerModule -->
<g id="edge1" class="edge">
<title>VisualizerComponent&#45;&gt;VisualizerModule</title>
<path fill="none" stroke="black" d="M93,-85.08C93,-106.12 93,-137.8 93,-137.8 93,-137.8 374.42,-137.8 374.42,-137.8"/>
<polygon fill="black" stroke="black" points="374.42,-141.3 384.42,-137.8 374.42,-134.3 374.42,-141.3"/>
</g>
<!-- ContentModule -->
<g id="node3" class="node">
<title>ContentModule</title>
<polygon fill="#8dd3c7" stroke="black" points="755.88,-84.8 752.88,-88.8 731.88,-88.8 728.88,-84.8 652.12,-84.8 652.12,-48.8 755.88,-48.8 755.88,-84.8"/>
<text text-anchor="middle" x="704" y="-62.6" font-family="Times,serif" font-size="14.00">ContentModule</text>
</g>
<!-- ContentModule&#45;&gt;VisualizerModule -->
<g id="edge2" class="edge">
<title>ContentModule&#45;&gt;VisualizerModule</title>
<path fill="none" stroke="black" d="M704,-85.08C704,-106.12 704,-137.8 704,-137.8 704,-137.8 511.57,-137.8 511.57,-137.8"/>
<polygon fill="black" stroke="black" points="511.57,-134.3 501.57,-137.8 511.57,-141.3 511.57,-134.3"/>
</g>
<!-- MenuModule -->
<g id="node4" class="node">
<title>MenuModule</title>
<polygon fill="#8dd3c7" stroke="black" points="634.21,-84.8 631.21,-88.8 610.21,-88.8 607.21,-84.8 541.79,-84.8 541.79,-48.8 634.21,-48.8 634.21,-84.8"/>
<text text-anchor="middle" x="588" y="-62.6" font-family="Times,serif" font-size="14.00">MenuModule</text>
</g>
<!-- MenuModule&#45;&gt;VisualizerModule -->
<g id="edge3" class="edge">
<title>MenuModule&#45;&gt;VisualizerModule</title>
<path fill="none" stroke="black" d="M588,-84.82C588,-102.17 588,-125.8 588,-125.8 588,-125.8 511.56,-125.8 511.56,-125.8"/>
<polygon fill="black" stroke="black" points="511.56,-122.3 501.56,-125.8 511.56,-129.3 511.56,-122.3"/>
</g>
<!-- VisualizerRoutingModule -->
<g id="node5" class="node">
<title>VisualizerRoutingModule</title>
<polygon fill="#8dd3c7" stroke="black" points="524.2,-84.8 521.2,-88.8 500.2,-88.8 497.2,-84.8 361.8,-84.8 361.8,-48.8 524.2,-48.8 524.2,-84.8"/>
<text text-anchor="middle" x="443" y="-62.6" font-family="Times,serif" font-size="14.00">VisualizerRoutingModule</text>
</g>
<!-- VisualizerRoutingModule&#45;&gt;VisualizerModule -->
<g id="edge4" class="edge">
<title>VisualizerRoutingModule&#45;&gt;VisualizerModule</title>
<path fill="none" stroke="black" d="M443,-84.91C443,-84.91 443,-103.79 443,-103.79"/>
<polygon fill="black" stroke="black" points="439.5,-103.79 443,-113.79 446.5,-103.79 439.5,-103.79"/>
</g>
<!-- MapDataService -->
<g id="node6" class="node">
<title>MapDataService</title>
<ellipse fill="#fdb462" stroke="black" cx="262" cy="-66.8" rx="75.84" ry="18"/>
<text text-anchor="middle" x="262" y="-62.6" font-family="Times,serif" font-size="14.00">MapDataService</text>
</g>
<!-- MapDataService&#45;&gt;VisualizerModule -->
<g id="edge5" class="edge">
<title>MapDataService&#45;&gt;VisualizerModule</title>
<path fill="none" stroke="black" d="M262,-84.82C262,-102.17 262,-125.8 262,-125.8 262,-125.8 374.23,-125.8 374.23,-125.8"/>
<polygon fill="black" stroke="black" points="374.23,-129.3 384.23,-125.8 374.23,-122.3 374.23,-129.3"/>
</g>
</g>
</svg>
