<?xml version="1.0" encoding="UTF-8" standalone="no"?>
<!DOCTYPE svg PUBLIC "-//W3C//DTD SVG 1.1//EN"
 "http://www.w3.org/Graphics/SVG/1.1/DTD/svg11.dtd">
<!-- Generated by graphviz version 2.47.3 (20210619.1520)
 -->
<!-- Title: dependencies Pages: 1 -->
<svg width="334pt" height="174pt"
 viewBox="0.00 0.00 334.00 173.80" xmlns="http://www.w3.org/2000/svg" xmlns:xlink="http://www.w3.org/1999/xlink">
<g id="graph0" class="graph" transform="scale(1 1) rotate(0) translate(4 169.8)">
<title>dependencies</title>
<polygon fill="white" stroke="transparent" points="-4,4 -4,-169.8 330,-169.8 330,4 -4,4"/>
<text text-anchor="middle" x="163" y="-8.2" font-family="sans-serif" font-size="14.00">dependencies</text>
<g id="clust1" class="cluster">
<title>cluster_HomeModule</title>
<polygon fill="none" stroke="black" stroke-dasharray="1,5" points="8,-32.8 8,-157.8 318,-157.8 318,-32.8 8,-32.8"/>
</g>
<g id="clust4" class="cluster">
<title>cluster_HomeModule_imports</title>
<polygon fill="none" stroke="black" points="156,-40.8 156,-92.8 310,-92.8 310,-40.8 156,-40.8"/>
</g>
<g id="clust2" class="cluster">
<title>cluster_HomeModule_declarations</title>
<polygon fill="none" stroke="black" points="16,-40.8 16,-92.8 148,-92.8 148,-40.8 16,-40.8"/>
</g>
<!-- HomeComponent -->
<g id="node1" class="node">
<title>HomeComponent</title>
<polygon fill="#ffffb3" stroke="black" points="139.55,-84.8 24.45,-84.8 24.45,-48.8 139.55,-48.8 139.55,-84.8"/>
<text text-anchor="middle" x="82" y="-62.6" font-family="Times,serif" font-size="14.00">HomeComponent</text>
</g>
<!-- HomeModule -->
<g id="node2" class="node">
<title>HomeModule</title>
<polygon fill="#8dd3c7" stroke="black" points="203.76,-149.8 200.76,-153.8 179.76,-153.8 176.76,-149.8 110.24,-149.8 110.24,-113.8 203.76,-113.8 203.76,-149.8"/>
<text text-anchor="middle" x="157" y="-127.6" font-family="Times,serif" font-size="14.00">HomeModule</text>
</g>
<!-- HomeComponent&#45;&gt;HomeModule -->
<g id="edge1" class="edge">
<title>HomeComponent&#45;&gt;HomeModule</title>
<path fill="none" stroke="black" d="M124.95,-84.91C124.95,-84.91 124.95,-103.79 124.95,-103.79"/>
<polygon fill="black" stroke="black" points="121.45,-103.79 124.95,-113.79 128.45,-103.79 121.45,-103.79"/>
</g>
<!-- HomeRoutingModule -->
<g id="node3" class="node">
<title>HomeRoutingModule</title>
<polygon fill="#8dd3c7" stroke="black" points="302.38,-84.8 299.38,-88.8 278.38,-88.8 275.38,-84.8 163.62,-84.8 163.62,-48.8 302.38,-48.8 302.38,-84.8"/>
<text text-anchor="middle" x="233" y="-62.6" font-family="Times,serif" font-size="14.00">HomeRoutingModule</text>
</g>
<!-- HomeRoutingModule&#45;&gt;HomeModule -->
<g id="edge2" class="edge">
<title>HomeRoutingModule&#45;&gt;HomeModule</title>
<path fill="none" stroke="black" d="M183.72,-84.91C183.72,-84.91 183.72,-103.79 183.72,-103.79"/>
<polygon fill="black" stroke="black" points="180.22,-103.79 183.72,-113.79 187.22,-103.79 180.22,-103.79"/>
</g>
</g>
</svg>
