<?xml version="1.0" encoding="UTF-8" standalone="no"?>
<!DOCTYPE svg PUBLIC "-//W3C//DTD SVG 1.1//EN"
 "http://www.w3.org/Graphics/SVG/1.1/DTD/svg11.dtd">
<!-- Generated by graphviz version 2.47.3 (20210619.1520)
 -->
<!-- Title: dependencies Pages: 1 -->
<svg width="1359pt" height="247pt"
 viewBox="0.00 0.00 1359.00 246.80" xmlns="http://www.w3.org/2000/svg" xmlns:xlink="http://www.w3.org/1999/xlink">
<g id="graph0" class="graph" transform="scale(1 1) rotate(0) translate(4 242.8)">
<title>dependencies</title>
<polygon fill="white" stroke="transparent" points="-4,4 -4,-242.8 1355,-242.8 1355,4 -4,4"/>
<text text-anchor="middle" x="675.5" y="-8.2" font-family="sans-serif" font-size="14.00">dependencies</text>
<g id="clust1" class="cluster">
<title>cluster_CoreModule</title>
<polygon fill="none" stroke="black" stroke-dasharray="1,5" points="8,-32.8 8,-230.8 1343,-230.8 1343,-32.8 8,-32.8"/>
</g>
<g id="clust4" class="cluster">
<title>cluster_CoreModule_exports</title>
<polygon fill="none" stroke="black" points="470,-170.8 470,-222.8 1002,-222.8 1002,-170.8 470,-170.8"/>
</g>
<g id="clust3" class="cluster">
<title>cluster_CoreModule_imports</title>
<polygon fill="none" stroke="black" points="16,-40.8 16,-92.8 1335,-92.8 1335,-40.8 16,-40.8"/>
</g>
<!-- AnalyticsConsentModule -->
<g id="node1" class="node">
<title>AnalyticsConsentModule</title>
<polygon fill="#8dd3c7" stroke="black" points="1326.59,-84.8 1323.59,-88.8 1302.59,-88.8 1299.59,-84.8 1167.41,-84.8 1167.41,-48.8 1326.59,-48.8 1326.59,-84.8"/>
<text text-anchor="middle" x="1247" y="-62.6" font-family="Times,serif" font-size="14.00">AnalyticsConsentModule</text>
</g>
<!-- CoreModule -->
<g id="node10" class="node">
<title>CoreModule</title>
<polygon fill="#8dd3c7" stroke="black" points="747.26,-149.8 744.26,-153.8 723.26,-153.8 720.26,-149.8 660.74,-149.8 660.74,-113.8 747.26,-113.8 747.26,-149.8"/>
<text text-anchor="middle" x="704" y="-127.6" font-family="Times,serif" font-size="14.00">CoreModule</text>
</g>
<!-- AnalyticsConsentModule&#45;&gt;CoreModule -->
<g id="edge1" class="edge">
<title>AnalyticsConsentModule&#45;&gt;CoreModule</title>
<path fill="none" stroke="black" d="M1247,-85.08C1247,-106.12 1247,-137.8 1247,-137.8 1247,-137.8 757.52,-137.8 757.52,-137.8"/>
<polygon fill="black" stroke="black" points="757.52,-134.3 747.52,-137.8 757.52,-141.3 757.52,-134.3"/>
</g>
<!-- BaseModalModule -->
<g id="node2" class="node">
<title>BaseModalModule</title>
<polygon fill="#8dd3c7" stroke="black" points="1149.81,-84.8 1146.81,-88.8 1125.81,-88.8 1122.81,-84.8 1026.19,-84.8 1026.19,-48.8 1149.81,-48.8 1149.81,-84.8"/>
<text text-anchor="middle" x="1088" y="-62.6" font-family="Times,serif" font-size="14.00">BaseModalModule</text>
</g>
<!-- BaseModalModule&#45;&gt;CoreModule -->
<g id="edge2" class="edge">
<title>BaseModalModule&#45;&gt;CoreModule</title>
<path fill="none" stroke="black" d="M1088,-84.91C1088,-104.14 1088,-131.8 1088,-131.8 1088,-131.8 757.3,-131.8 757.3,-131.8"/>
<polygon fill="black" stroke="black" points="757.3,-128.3 747.3,-131.8 757.3,-135.3 757.3,-128.3"/>
</g>
<!-- BasePopupModule -->
<g id="node3" class="node">
<title>BasePopupModule</title>
<polygon fill="#8dd3c7" stroke="black" points="1008.04,-84.8 1005.04,-88.8 984.04,-88.8 981.04,-84.8 885.96,-84.8 885.96,-48.8 1008.04,-48.8 1008.04,-84.8"/>
<text text-anchor="middle" x="947" y="-62.6" font-family="Times,serif" font-size="14.00">BasePopupModule</text>
</g>
<!-- BasePopupModule&#45;&gt;CoreModule -->
<g id="edge3" class="edge">
<title>BasePopupModule&#45;&gt;CoreModule</title>
<path fill="none" stroke="black" d="M940.01,-84.82C940.01,-102.17 940.01,-125.8 940.01,-125.8 940.01,-125.8 757.29,-125.8 757.29,-125.8"/>
<polygon fill="black" stroke="black" points="757.29,-122.3 747.29,-125.8 757.29,-129.3 757.29,-122.3"/>
</g>
<!-- FooterModule -->
<g id="node4" class="node">
<title>FooterModule</title>
<polygon fill="#8dd3c7" stroke="black" points="868.1,-84.8 865.1,-88.8 844.1,-88.8 841.1,-84.8 771.9,-84.8 771.9,-48.8 868.1,-48.8 868.1,-84.8"/>
<text text-anchor="middle" x="820" y="-62.6" font-family="Times,serif" font-size="14.00">FooterModule</text>
</g>
<!-- FooterModule&#45;&gt;CoreModule -->
<g id="edge4" class="edge">
<title>FooterModule&#45;&gt;CoreModule</title>
<path fill="none" stroke="black" d="M792.88,-85.04C792.88,-100.37 792.88,-119.8 792.88,-119.8 792.88,-119.8 757.4,-119.8 757.4,-119.8"/>
<polygon fill="black" stroke="black" points="757.4,-116.3 747.4,-119.8 757.4,-123.3 757.4,-116.3"/>
</g>
<!-- HeaderModule -->
<g id="node5" class="node">
<title>HeaderModule</title>
<polygon fill="#8dd3c7" stroke="black" points="753.96,-84.8 750.96,-88.8 729.96,-88.8 726.96,-84.8 654.04,-84.8 654.04,-48.8 753.96,-48.8 753.96,-84.8"/>
<text text-anchor="middle" x="704" y="-62.6" font-family="Times,serif" font-size="14.00">HeaderModule</text>
</g>
<!-- HeaderModule&#45;&gt;CoreModule -->
<g id="edge5" class="edge">
<title>HeaderModule&#45;&gt;CoreModule</title>
<path fill="none" stroke="black" d="M704,-84.91C704,-84.91 704,-103.79 704,-103.79"/>
<polygon fill="black" stroke="black" points="700.5,-103.79 704,-113.79 707.5,-103.79 700.5,-103.79"/>
</g>
<!-- MenuModule -->
<g id="node6" class="node">
<title>MenuModule</title>
<polygon fill="#8dd3c7" stroke="black" points="636.21,-84.8 633.21,-88.8 612.21,-88.8 609.21,-84.8 543.79,-84.8 543.79,-48.8 636.21,-48.8 636.21,-84.8"/>
<text text-anchor="middle" x="590" y="-62.6" font-family="Times,serif" font-size="14.00">MenuModule</text>
</g>
<!-- MenuModule&#45;&gt;CoreModule -->
<g id="edge6" class="edge">
<title>MenuModule&#45;&gt;CoreModule</title>
<path fill="none" stroke="black" d="M614.19,-85.04C614.19,-100.37 614.19,-119.8 614.19,-119.8 614.19,-119.8 650.67,-119.8 650.67,-119.8"/>
<polygon fill="black" stroke="black" points="650.67,-123.3 660.67,-119.8 650.67,-116.3 650.67,-123.3"/>
</g>
<!-- MousePositionCollectorModule -->
<g id="node7" class="node">
<title>MousePositionCollectorModule</title>
<polygon fill="#8dd3c7" stroke="black" points="525.65,-84.8 522.65,-88.8 501.65,-88.8 498.65,-84.8 330.35,-84.8 330.35,-48.8 525.65,-48.8 525.65,-84.8"/>
<text text-anchor="middle" x="428" y="-62.6" font-family="Times,serif" font-size="14.00">MousePositionCollectorModule</text>
</g>
<!-- MousePositionCollectorModule&#45;&gt;CoreModule -->
<g id="edge7" class="edge">
<title>MousePositionCollectorModule&#45;&gt;CoreModule</title>
<path fill="none" stroke="black" d="M501.99,-84.82C501.99,-102.17 501.99,-125.8 501.99,-125.8 501.99,-125.8 650.66,-125.8 650.66,-125.8"/>
<polygon fill="black" stroke="black" points="650.66,-129.3 660.66,-125.8 650.66,-122.3 650.66,-129.3"/>
</g>
<!-- SiteConfigurationModule -->
<g id="node8" class="node">
<title>SiteConfigurationModule</title>
<polygon fill="#8dd3c7" stroke="black" points="311.87,-84.8 308.87,-88.8 287.87,-88.8 284.87,-84.8 152.13,-84.8 152.13,-48.8 311.87,-48.8 311.87,-84.8"/>
<text text-anchor="middle" x="232" y="-62.6" font-family="Times,serif" font-size="14.00">SiteConfigurationModule</text>
</g>
<!-- SiteConfigurationModule&#45;&gt;CoreModule -->
<g id="edge8" class="edge">
<title>SiteConfigurationModule&#45;&gt;CoreModule</title>
<path fill="none" stroke="black" d="M232,-84.91C232,-104.14 232,-131.8 232,-131.8 232,-131.8 650.44,-131.8 650.44,-131.8"/>
<polygon fill="black" stroke="black" points="650.44,-135.3 660.44,-131.8 650.44,-128.3 650.44,-135.3"/>
</g>
<!-- ThemingModule -->
<g id="node9" class="node">
<title>ThemingModule</title>
<polygon fill="#8dd3c7" stroke="black" points="134.1,-84.8 131.1,-88.8 110.1,-88.8 107.1,-84.8 23.9,-84.8 23.9,-48.8 134.1,-48.8 134.1,-84.8"/>
<text text-anchor="middle" x="79" y="-62.6" font-family="Times,serif" font-size="14.00">ThemingModule</text>
</g>
<!-- ThemingModule&#45;&gt;CoreModule -->
<g id="edge9" class="edge">
<title>ThemingModule&#45;&gt;CoreModule</title>
<path fill="none" stroke="black" d="M79,-85.08C79,-106.12 79,-137.8 79,-137.8 79,-137.8 650.55,-137.8 650.55,-137.8"/>
<polygon fill="black" stroke="black" points="650.55,-141.3 660.55,-137.8 650.55,-134.3 650.55,-141.3"/>
</g>
<!-- AnalyticsConsentModule  -->
<g id="node11" class="node">
<title>AnalyticsConsentModule </title>
<polygon fill="#fb8072" stroke="black" points="994.09,-214.8 831.91,-214.8 831.91,-178.8 994.09,-178.8 994.09,-214.8"/>
<text text-anchor="middle" x="913" y="-192.6" font-family="Times,serif" font-size="14.00">AnalyticsConsentModule </text>
</g>
<!-- CoreModule&#45;&gt;AnalyticsConsentModule  -->
<g id="edge10" class="edge">
<title>CoreModule&#45;&gt;AnalyticsConsentModule </title>
<path fill="none" stroke="black" stroke-dasharray="5,2" d="M747.37,-143.8C790.37,-143.8 849.88,-143.8 849.88,-143.8 849.88,-143.8 849.88,-168.56 849.88,-168.56"/>
<polygon fill="black" stroke="black" points="846.38,-168.56 849.88,-178.56 853.38,-168.56 846.38,-168.56"/>
</g>
<!-- FooterModule  -->
<g id="node12" class="node">
<title>FooterModule </title>
<polygon fill="#fb8072" stroke="black" points="813.6,-214.8 714.4,-214.8 714.4,-178.8 813.6,-178.8 813.6,-214.8"/>
<text text-anchor="middle" x="764" y="-192.6" font-family="Times,serif" font-size="14.00">FooterModule </text>
</g>
<!-- CoreModule&#45;&gt;FooterModule  -->
<g id="edge11" class="edge">
<title>CoreModule&#45;&gt;FooterModule </title>
<path fill="none" stroke="black" stroke-dasharray="5,2" d="M730.79,-149.91C730.79,-149.91 730.79,-168.79 730.79,-168.79"/>
<polygon fill="black" stroke="black" points="727.29,-168.79 730.79,-178.79 734.29,-168.79 727.29,-168.79"/>
</g>
<!-- HeaderModule  -->
<g id="node13" class="node">
<title>HeaderModule </title>
<polygon fill="#fb8072" stroke="black" points="695.96,-214.8 592.04,-214.8 592.04,-178.8 695.96,-178.8 695.96,-214.8"/>
<text text-anchor="middle" x="644" y="-192.6" font-family="Times,serif" font-size="14.00">HeaderModule </text>
</g>
<!-- CoreModule&#45;&gt;HeaderModule  -->
<g id="edge12" class="edge">
<title>CoreModule&#45;&gt;HeaderModule </title>
<path fill="none" stroke="black" stroke-dasharray="5,2" d="M678.17,-149.91C678.17,-149.91 678.17,-168.79 678.17,-168.79"/>
<polygon fill="black" stroke="black" points="674.67,-168.79 678.17,-178.79 681.67,-168.79 674.67,-168.79"/>
</g>
<!-- MenuModule  -->
<g id="node14" class="node">
<title>MenuModule </title>
<polygon fill="#fb8072" stroke="black" points="573.71,-214.8 478.29,-214.8 478.29,-178.8 573.71,-178.8 573.71,-214.8"/>
<text text-anchor="middle" x="526" y="-192.6" font-family="Times,serif" font-size="14.00">MenuModule </text>
</g>
<!-- CoreModule&#45;&gt;MenuModule  -->
<g id="edge13" class="edge">
<title>CoreModule&#45;&gt;MenuModule </title>
<path fill="none" stroke="black" stroke-dasharray="5,2" d="M660.46,-143.8C617.71,-143.8 558.88,-143.8 558.88,-143.8 558.88,-143.8 558.88,-168.56 558.88,-168.56"/>
<polygon fill="black" stroke="black" points="555.38,-168.56 558.88,-178.56 562.38,-168.56 555.38,-168.56"/>
</g>
</g>
</svg>
