<svg id="Layer_1" data-name="Layer 1" xmlns="http://www.w3.org/2000/svg" viewBox="0 0 195 32"><defs><style>.cls-1{fill:none;}.cls-2{fill:#fff;}</style></defs><rect class="cls-1" width="195" height="32"/><path class="cls-2" d="M27.22,9.17H18.94V30.92H9.45V9.17H1.17V1H27.22Z" transform="translate(0 0)"/><path class="cls-2" d="M57,30.92h-9.7a7.32,7.32,0,0,1-.59-3l-.13-3c-.12-2.86-1-3.74-3.82-3.74H39.44v9.74h-9.5V1H44.69c9,0,11.51,4.11,11.51,8.78,0,3.57-1.52,6-4.5,7.14,2.77,1,3.95,3.1,4.2,6.55l.34,4.41A6.16,6.16,0,0,0,57,30.92ZM46.49,11.31c0-2.06-1.13-3-3.27-3H39.44v6h3.78C45.36,14.29,46.49,13.37,46.49,11.31Z" transform="translate(0 0)"/><path class="cls-2" d="M59.55,1H69v29.9H59.55Z" transform="translate(0 0)"/><path class="cls-2" d="M99.12,11.69c0,6.46-4.33,10.67-11.72,10.67H82.32v8.56h-9.5V1H87.4C94.79,1,99.12,5.22,99.12,11.69Zm-9.75,0c0-1.89-1.21-2.86-3.23-2.86H82.32v5.71h3.82C88.16,14.54,89.37,13.58,89.37,11.69Z" transform="translate(0 0)"/><path class="cls-2" d="M101.05,16c0-9.58,6.51-15.63,15.83-15.63S132.72,6.39,132.72,16s-6.51,15.67-15.84,15.67S101.05,25.59,101.05,16Zm21.84,0c0-5.33-2.48-7.56-6-7.56s-6,2.23-6,7.56,2.48,7.6,6,7.6S122.89,21.35,122.89,16Z" transform="translate(0 0)"/><path class="cls-2" d="M164.39,16c0,9.91-5,15-14.79,15h-14V1h14.12C159.47,1,164.39,6.06,164.39,16Zm-9.83,0c0-5.17-1.51-7.06-5.42-7.06h-4V23h4C153.05,23,154.56,21.14,154.56,16Z" transform="translate(0 0)"/><path class="cls-2" d="M165.89,21.09h9.37c.21,2.78,1.93,3.45,4.58,3.45s3.91-.67,3.91-2.06-1-2-4.25-2.44l-3.61-.5c-5.42-.76-9.28-3.7-9.28-9.41,0-4.7,2.48-9.79,12.73-9.79,7.81,0,12.6,2.94,13.14,9.88h-8.77c-.21-1.81-1.18-2.86-4-2.86-2.6,0-3.61.76-3.61,1.93s1,1.77,2.81,2l3.62.5c7.47,1,10.83,3.91,10.83,9.24,0,6.43-4.66,10.59-13.65,10.59C170.51,31.64,166.19,27.35,165.89,21.09Z" transform="translate(0 0)"/></svg>