<svg id="Group_201" data-name="Group 201" xmlns="http://www.w3.org/2000/svg" width="336.295" height="56.275" viewBox="0 0 336.295 56.275">
  <g id="Group_199" data-name="Group 199">
    <path id="Path_294" data-name="Path 294" d="M80.213,52.606a18.172,18.172,0,0,1-18.175-17.9V16.952A13.321,13.321,0,0,1,75.32,3.67H92.1V9.961H75.32a6.312,6.312,0,0,0-6.293,6.293V35.338A11.223,11.223,0,0,0,80.213,46.314H92.1v6.292Z" fill="#0e1e24"/>
    <path id="Path_295" data-name="Path 295" d="M97.4,3.67h6.991l18.176,34.6V3.67h6.99V52.606h-6.99L104.392,18v34.6H97.4Z" fill="#0e1e24"/>
    <path id="Path_296" data-name="Path 296" d="M135.176,52.606V46.314h15.379a8.675,8.675,0,0,0,8.389-8.739,8.5,8.5,0,0,0-6.5-8.249l-9.227-1.886a11.715,11.715,0,0,1-9.438-11.885A12.071,12.071,0,0,1,145.941,3.67h17.2V9.961H146.361a5.522,5.522,0,0,0-5.593,5.594,5.462,5.462,0,0,0,4.194,5.453L154.05,22.9a15.023,15.023,0,0,1-2.8,29.711Z" fill="#0e1e24"/>
  </g>
  <path id="Path_297" data-name="Path 297" d="M33.541,7.5A21.369,21.369,0,0,1,48.778,22.734a5.4,5.4,0,0,0-5.282,4.4H33.447A5.347,5.347,0,0,0,32.6,25.09l3.605-3.606a3,3,0,1,0-1.414-1.415l-3.606,3.607a5.386,5.386,0,0,0-2.047-.848V12.778A5.4,5.4,0,0,0,33.541,7.5ZM12.779,27.138h10.05a5.367,5.367,0,0,1,.846-2.048l-3.6-3.606a2.958,2.958,0,0,1-3.947-3.947h0l0,0a2.974,2.974,0,0,1,1.41-1.41l0,0h0a2.958,2.958,0,0,1,3.947,3.947l3.606,3.606a5.373,5.373,0,0,1,2.047-.848V12.778a5.4,5.4,0,0,1-4.4-5.281A21.369,21.369,0,0,0,7.5,22.734,5.4,5.4,0,0,1,12.779,27.138ZM27.137,43.5V33.445A5.352,5.352,0,0,1,25.09,32.6l-3.606,3.605a2.942,2.942,0,0,1,.292,1.266,3,3,0,1,1-1.706-2.68l3.606-3.6a5.371,5.371,0,0,1-.847-2.049H12.779a5.4,5.4,0,0,1-5.281,4.4A21.365,21.365,0,0,0,22.734,48.777,5.4,5.4,0,0,1,27.137,43.5ZM43.5,29.137H33.447a5.387,5.387,0,0,1-.847,2.049l3.605,3.6a2.955,2.955,0,0,1,3.946,3.945v0h0a2.968,2.968,0,0,1-1.409,1.41h0a2.955,2.955,0,0,1-3.946-3.945L31.185,32.6a5.365,5.365,0,0,1-2.047.845V43.5a5.4,5.4,0,0,1,4.4,5.281A21.369,21.369,0,0,0,48.778,33.541,5.4,5.4,0,0,1,43.5,29.137Zm12.779-1A28.138,28.138,0,1,0,28.137,56.275,28.17,28.17,0,0,0,56.275,28.137Zm-3.351,0A24.786,24.786,0,1,1,28.137,3.352,24.815,24.815,0,0,1,52.924,28.137Z" fill="#8dc63f"/>
  <g id="Group_200" data-name="Group 200">
    <path id="Path_298" data-name="Path 298" d="M178.132,35.223a4.393,4.393,0,0,1-4.4-4.4V26.287a3.228,3.228,0,0,1,3.234-3.234h4.067V24.27h-4.067a1.879,1.879,0,0,0-1.843,1.842v4.869a3.046,3.046,0,0,0,3.007,3.024h2.9v1.218Z" fill="#0e1e24"/>
    <path id="Path_299" data-name="Path 299" d="M187.6,34.44a2.91,2.91,0,0,1-2.017.783h-.66a2.339,2.339,0,0,1-2.363-2.347V26.529h1.389V33.05a.958.958,0,0,0,.974.955h.66a1.974,1.974,0,0,0,2.017-1.911V26.529h1.391v9.389a3.354,3.354,0,0,1-3.391,3.3h-2V38h2.035a1.973,1.973,0,0,0,1.964-1.965Z" fill="#0e1e24"/>
    <path id="Path_300" data-name="Path 300" d="M190.945,23.053h1.39v3.476h2.677a2.342,2.342,0,0,1,2.365,2.348v2.989a3.345,3.345,0,0,1-3.356,3.357h-3.076Zm5.041,5.668a.973.973,0,0,0-.974-.974h-2.677v6.258h1.686a1.973,1.973,0,0,0,1.965-1.964Z" fill="#0e1e24"/>
    <path id="Path_301" data-name="Path 301" d="M205.14,35.223h-2.747a3.33,3.33,0,0,1-3.338-3.357V28.877a2.38,2.38,0,0,1,2.435-2.348h1.562a2.38,2.38,0,0,1,2.435,2.348,2.468,2.468,0,0,1-1.893,2.313l-3.147.764v.087a1.957,1.957,0,0,0,1.946,1.964h2.747Zm-4.693-4.555,2.833-.7a1.054,1.054,0,0,0,.817-1.094,1.115,1.115,0,0,0-1.045-1.13H201.49a1.1,1.1,0,0,0-1.043,1.13Z" fill="#0e1e24"/>
    <path id="Path_302" data-name="Path 302" d="M207.158,26.529h.868l.521.784a2.558,2.558,0,0,1,1.912-.784h2.087v1.218h-2.087a1.918,1.918,0,0,0-1.912,1.912v5.564h-1.389Z" fill="#0e1e24"/>
    <path id="Path_303" data-name="Path 303" d="M214.128,23.053h1.391v1.738h-1.391Zm0,3.476h1.391v8.694h-1.391Z" fill="#0e1e24"/>
    <path id="Path_304" data-name="Path 304" d="M218.839,35.223H217.45V26.529h.869l.52.784a2.649,2.649,0,0,1,1.966-.784h.712a2.341,2.341,0,0,1,2.363,2.348v6.346h-1.389v-6.5a.972.972,0,0,0-.974-.974H220.8a1.974,1.974,0,0,0-1.966,1.964Z" fill="#0e1e24"/>
    <path id="Path_305" data-name="Path 305" d="M227.22,25.418v1.111h2.26v1.218h-2.26v7.476h-1.391V25.418a2.373,2.373,0,0,1,2.435-2.365h1.216V24.27h-1.216A1.1,1.1,0,0,0,227.22,25.418Z" fill="#0e1e24"/>
    <path id="Path_306" data-name="Path 306" d="M231.054,26.529h.87l.52.784a2.562,2.562,0,0,1,1.914-.784h2.085v1.218h-2.085a1.918,1.918,0,0,0-1.914,1.912v5.564h-1.39Z" fill="#0e1e24"/>
    <path id="Path_307" data-name="Path 307" d="M238.2,27.747V26.529h3.39a2.323,2.323,0,0,1,2.346,2.33v6.364h-4.084a2.321,2.321,0,0,1-2.348-2.366,2.493,2.493,0,0,1,1.911-2.294l3.129-.747V28.7a.953.953,0,0,0-.954-.956Zm1.652,6.258h2.692V31.051l-2.834.694a1.121,1.121,0,0,0-.817,1.112A1.061,1.061,0,0,0,239.851,34.005Z" fill="#0e1e24"/>
    <path id="Path_308" data-name="Path 308" d="M247.517,31.172a2.342,2.342,0,0,1,.522-4.643h3.476v1.218h-3.476A1.113,1.113,0,0,0,247,28.877a1.1,1.1,0,0,0,.8,1.094l2.33.609a2.422,2.422,0,0,1,1.913,2.3,2.379,2.379,0,0,1-2.434,2.347H245.78V34.005H249.6a1.15,1.15,0,0,0,.174-2.26Z" fill="#0e1e24"/>
    <path id="Path_309" data-name="Path 309" d="M257.184,34.005v1.218h-1.042a2.355,2.355,0,0,1-2.436-2.33v-9.84H255.1v3.476h2.086v1.218H255.1v5.146a1.084,1.084,0,0,0,1.044,1.112Z" fill="#0e1e24"/>
    <path id="Path_310" data-name="Path 310" d="M258.759,26.529h.869l.523.784a2.548,2.548,0,0,1,1.91-.784h2.087v1.218h-2.087a1.915,1.915,0,0,0-1.91,1.912v5.564h-1.392Z" fill="#0e1e24"/>
    <path id="Path_311" data-name="Path 311" d="M270.772,26.529h1.39v8.694h-.87l-.52-.783a2.646,2.646,0,0,1-1.965.783h-.714a2.34,2.34,0,0,1-2.363-2.347V26.529h1.39v6.5a.972.972,0,0,0,.973.974h.714a1.974,1.974,0,0,0,1.965-1.964Z" fill="#0e1e24"/>
    <path id="Path_312" data-name="Path 312" d="M277.141,35.223a3.184,3.184,0,0,1-3.181-3.182V28.877a2.342,2.342,0,0,1,2.362-2.348h3.55v1.218h-3.55a.973.973,0,0,0-.972.974V32.2a1.814,1.814,0,0,0,1.791,1.808h2.731v1.218Z" fill="#0e1e24"/>
    <path id="Path_313" data-name="Path 313" d="M284.93,34.005v1.218h-1.042a2.355,2.355,0,0,1-2.434-2.33v-9.84h1.392v3.476h2.084v1.218h-2.084v5.146a1.082,1.082,0,0,0,1.042,1.112Z" fill="#0e1e24"/>
    <path id="Path_314" data-name="Path 314" d="M291.548,26.529h1.388v8.694h-.869l-.519-.783a2.652,2.652,0,0,1-1.966.783h-.713a2.341,2.341,0,0,1-2.364-2.347V26.529h1.39v6.5a.974.974,0,0,0,.974.974h.713a1.975,1.975,0,0,0,1.966-1.964Z" fill="#0e1e24"/>
    <path id="Path_315" data-name="Path 315" d="M294.894,26.529h.871l.519.784a2.558,2.558,0,0,1,1.912-.784h2.087v1.218H298.2a1.918,1.918,0,0,0-1.912,1.912v5.564h-1.39Z" fill="#0e1e24"/>
    <path id="Path_316" data-name="Path 316" d="M307.768,35.223h-2.749a3.33,3.33,0,0,1-3.336-3.357V28.877a2.381,2.381,0,0,1,2.433-2.348h1.566a2.38,2.38,0,0,1,2.434,2.348,2.468,2.468,0,0,1-1.894,2.313l-3.149.764v.087a1.959,1.959,0,0,0,1.946,1.964h2.749Zm-4.7-4.555,2.836-.7a1.055,1.055,0,0,0,.815-1.094,1.115,1.115,0,0,0-1.042-1.13h-1.566a1.1,1.1,0,0,0-1.043,1.13Z" fill="#0e1e24"/>
    <path id="Path_317" data-name="Path 317" d="M315.069,25.418v1.111h2.258v1.218h-2.258v7.476h-1.393V25.418a2.372,2.372,0,0,1,2.434-2.365h1.217V24.27H316.11A1.1,1.1,0,0,0,315.069,25.418Z" fill="#0e1e24"/>
    <path id="Path_318" data-name="Path 318" d="M321.406,35.223a2.671,2.671,0,0,1-2.678-2.7v-3.65a2.337,2.337,0,0,1,2.346-2.348h1.913a2.34,2.34,0,0,1,2.348,2.348v3.65a2.673,2.673,0,0,1-2.679,2.7Zm1.25-1.218a1.3,1.3,0,0,0,1.287-1.3v-3.98a.958.958,0,0,0-.956-.974h-1.913a.969.969,0,0,0-.957.974V32.7a1.3,1.3,0,0,0,1.289,1.3Z" fill="#0e1e24"/>
    <path id="Path_319" data-name="Path 319" d="M327.149,26.529h.867l.521.784a2.562,2.562,0,0,1,1.914-.784h2.086v1.218h-2.086a1.919,1.919,0,0,0-1.914,1.912v5.564h-1.388Z" fill="#0e1e24"/>
    <path id="Path_320" data-name="Path 320" d="M173.906,40.436h1.444l4.991,9.387V40.436h1.391v12.17h-1.424l-5.01-9.389v9.389h-1.392Z" fill="#0e1e24"/>
    <path id="Path_321" data-name="Path 321" d="M189.636,52.606h-2.747a3.332,3.332,0,0,1-3.337-3.356V46.26a2.379,2.379,0,0,1,2.433-2.348h1.564a2.38,2.38,0,0,1,2.435,2.348,2.464,2.464,0,0,1-1.9,2.311l-3.145.765v.088a1.959,1.959,0,0,0,1.946,1.965h2.747Zm-4.693-4.555,2.834-.7a1.058,1.058,0,0,0,.817-1.1,1.113,1.113,0,0,0-1.045-1.131h-1.564a1.1,1.1,0,0,0-1.042,1.131Z" fill="#0e1e24"/>
    <path id="Path_322" data-name="Path 322" d="M195.131,51.389v1.217h-1.044a2.354,2.354,0,0,1-2.432-2.33v-9.84h1.389v3.476h2.087v1.217h-2.087v5.147a1.085,1.085,0,0,0,1.043,1.113Z" fill="#0e1e24"/>
    <path id="Path_323" data-name="Path 323" d="M201.858,43.912h1.356l2.016,6.52,2.016-6.52h1.461l-2.78,8.694h-1.392l-2.016-6.242-1.982,6.242h-1.392l-2.782-8.694h1.46l2.018,6.52Z" fill="#0e1e24"/>
    <path id="Path_324" data-name="Path 324" d="M212.547,52.606a2.671,2.671,0,0,1-2.675-2.7V46.26a2.336,2.336,0,0,1,2.345-2.348h1.911a2.338,2.338,0,0,1,2.349,2.348v3.65a2.672,2.672,0,0,1-2.678,2.7Zm1.252-1.217a1.3,1.3,0,0,0,1.287-1.305V46.1a.96.96,0,0,0-.958-.974h-1.911a.97.97,0,0,0-.957.974v3.981a1.3,1.3,0,0,0,1.287,1.305Z" fill="#0e1e24"/>
    <path id="Path_325" data-name="Path 325" d="M218.29,43.912h.87l.521.783a2.558,2.558,0,0,1,1.913-.783h2.086v1.217h-2.086a1.917,1.917,0,0,0-1.913,1.912v5.565H218.29Z" fill="#0e1e24"/>
    <path id="Path_326" data-name="Path 326" d="M225.262,40.436h1.391v12.17h-1.391Zm5.5,3.476h1.807l-4.172,4.347,4.172,4.347h-1.807l-4.1-4.347Z" fill="#0e1e24"/>
    <path id="Path_327" data-name="Path 327" d="M237.777,52.606V51.389h3.652a2.454,2.454,0,0,0,2.434-2.436,2.387,2.387,0,0,0-1.74-2.311l-2.434-.5a2.827,2.827,0,0,1-2.257-2.833,2.876,2.876,0,0,1,2.9-2.869h4.226v1.217h-4.069a1.676,1.676,0,0,0-1.667,1.652,1.66,1.66,0,0,0,1.216,1.6l2.347.489a3.652,3.652,0,0,1-.8,7.215Z" fill="#0e1e24"/>
    <path id="Path_328" data-name="Path 328" d="M250.017,52.606a3.182,3.182,0,0,1-3.181-3.182V46.26a2.341,2.341,0,0,1,2.363-2.348h3.547v1.217H249.2a.972.972,0,0,0-.973.974V49.58a1.816,1.816,0,0,0,1.791,1.809h2.729v1.217Z" fill="#0e1e24"/>
    <path id="Path_329" data-name="Path 329" d="M254.33,40.436h1.39v1.737h-1.39Zm0,3.476h1.39v8.694h-1.39Z" fill="#0e1e24"/>
    <path id="Path_330" data-name="Path 330" d="M263.582,52.606h-2.747A3.331,3.331,0,0,1,257.5,49.25V46.26a2.379,2.379,0,0,1,2.433-2.348H261.5a2.378,2.378,0,0,1,2.432,2.348,2.463,2.463,0,0,1-1.894,2.311l-3.147.765v.088a1.96,1.96,0,0,0,1.947,1.965h2.747Zm-4.694-4.555,2.834-.7a1.057,1.057,0,0,0,.817-1.1,1.112,1.112,0,0,0-1.042-1.131h-1.565a1.1,1.1,0,0,0-1.044,1.131Z" fill="#0e1e24"/>
    <path id="Path_331" data-name="Path 331" d="M266.991,52.606H265.6V43.912h.871l.521.783a2.651,2.651,0,0,1,1.966-.783h.711a2.342,2.342,0,0,1,2.365,2.348v6.346h-1.392V46.1a.972.972,0,0,0-.973-.974h-.711a1.974,1.974,0,0,0-1.966,1.965Z" fill="#0e1e24"/>
    <path id="Path_332" data-name="Path 332" d="M277,52.606a3.183,3.183,0,0,1-3.183-3.182V46.26a2.342,2.342,0,0,1,2.367-2.348h3.545v1.217h-3.545a.975.975,0,0,0-.976.974V49.58A1.815,1.815,0,0,0,277,51.389h2.729v1.217Z" fill="#0e1e24"/>
    <path id="Path_333" data-name="Path 333" d="M287.21,52.606h-2.745a3.332,3.332,0,0,1-3.339-3.356V46.26a2.378,2.378,0,0,1,2.433-2.348h1.566a2.378,2.378,0,0,1,2.432,2.348,2.463,2.463,0,0,1-1.9,2.311l-3.145.765v.088a1.959,1.959,0,0,0,1.948,1.965h2.745Zm-4.693-4.555,2.833-.7a1.055,1.055,0,0,0,.817-1.1,1.112,1.112,0,0,0-1.042-1.131h-1.566a1.1,1.1,0,0,0-1.042,1.131Z" fill="#0e1e24"/>
    <path id="Path_334" data-name="Path 334" d="M297.344,52.606a4.394,4.394,0,0,1-4.4-4.4V43.67a3.23,3.23,0,0,1,3.236-3.234h4.07v1.217h-4.07a1.875,1.875,0,0,0-1.84,1.842v4.868a3.045,3.045,0,0,0,3.005,3.026h2.9v1.217Z" fill="#0e1e24"/>
    <path id="Path_335" data-name="Path 335" d="M307.575,52.606h-2.749a3.331,3.331,0,0,1-3.336-3.356V46.26a2.377,2.377,0,0,1,2.433-2.348h1.567a2.38,2.38,0,0,1,2.432,2.348,2.463,2.463,0,0,1-1.895,2.311l-3.147.765v.088a1.959,1.959,0,0,0,1.946,1.965h2.749Zm-4.7-4.555,2.834-.7a1.057,1.057,0,0,0,.818-1.1,1.113,1.113,0,0,0-1.042-1.131h-1.567a1.1,1.1,0,0,0-1.043,1.131Z" fill="#0e1e24"/>
    <path id="Path_336" data-name="Path 336" d="M310.982,52.606h-1.391V43.912h.869l.522.783a2.645,2.645,0,0,1,1.965-.783h.712a2.341,2.341,0,0,1,2.364,2.348v6.346h-1.391V46.1a.972.972,0,0,0-.973-.974h-.712a1.974,1.974,0,0,0-1.965,1.965Z" fill="#0e1e24"/>
    <path id="Path_337" data-name="Path 337" d="M321.412,51.389v1.217h-1.043a2.356,2.356,0,0,1-2.433-2.33v-9.84h1.39v3.476h2.086v1.217h-2.086v5.147a1.085,1.085,0,0,0,1.043,1.113Z" fill="#0e1e24"/>
    <path id="Path_338" data-name="Path 338" d="M328.889,52.606h-2.747A3.334,3.334,0,0,1,322.8,49.25V46.26a2.38,2.38,0,0,1,2.435-2.348H326.8a2.379,2.379,0,0,1,2.432,2.348,2.463,2.463,0,0,1-1.895,2.311l-3.147.765v.088a1.96,1.96,0,0,0,1.949,1.965h2.747Zm-4.7-4.555,2.832-.7a1.055,1.055,0,0,0,.82-1.1,1.113,1.113,0,0,0-1.042-1.131h-1.565a1.1,1.1,0,0,0-1.045,1.131Z" fill="#0e1e24"/>
    <path id="Path_339" data-name="Path 339" d="M330.9,43.912h.869l.522.783a2.562,2.562,0,0,1,1.915-.783H336.3v1.217H334.21a1.917,1.917,0,0,0-1.915,1.912v5.565H330.9Z" fill="#0e1e24"/>
  </g>
</svg>
