<?xml version="1.0" encoding="UTF-8" standalone="no"?>
<!DOCTYPE svg PUBLIC "-//W3C//DTD SVG 1.1//EN"
 "http://www.w3.org/Graphics/SVG/1.1/DTD/svg11.dtd">
<!-- Generated by graphviz version 2.47.3 (20210619.1520)
 -->
<!-- Title: dependencies Pages: 1 -->
<svg width="2677pt" height="481pt"
 viewBox="0.00 0.00 2677.00 480.80" xmlns="http://www.w3.org/2000/svg" xmlns:xlink="http://www.w3.org/1999/xlink">
<g id="graph0" class="graph" transform="scale(1 1) rotate(0) translate(4 476.8)">
<title>dependencies</title>
<polygon fill="white" stroke="transparent" points="-4,4 -4,-476.8 2673,-476.8 2673,4 -4,4"/>
<text text-anchor="middle" x="1334.5" y="-8.2" font-family="sans-serif" font-size="14.00">dependencies</text>
<g id="clust1" class="cluster">
<title>cluster_AnalyticsConsentModule</title>
<polygon fill="none" stroke="black" stroke-dasharray="1,5" points="8,-32.8 8,-244.8 224,-244.8 224,-32.8 8,-32.8"/>
</g>
<g id="clust2" class="cluster">
<title>cluster_AnalyticsConsentModule_declarations</title>
<polygon fill="none" stroke="black" points="20,-40.8 20,-92.8 216,-92.8 216,-40.8 20,-40.8"/>
</g>
<g id="clust5" class="cluster">
<title>cluster_AnalyticsConsentModule_exports</title>
<polygon fill="none" stroke="black" points="16,-184.8 16,-236.8 216,-236.8 216,-184.8 16,-184.8"/>
</g>
<g id="clust8" class="cluster">
<title>cluster_AppModule</title>
<polygon fill="none" stroke="black" stroke-dasharray="1,5" points="741,-252.8 741,-464.8 1591,-464.8 1591,-252.8 741,-252.8"/>
</g>
<g id="clust9" class="cluster">
<title>cluster_AppModule_declarations</title>
<polygon fill="none" stroke="black" points="749,-260.8 749,-312.8 871,-312.8 871,-260.8 749,-260.8"/>
</g>
<g id="clust11" class="cluster">
<title>cluster_AppModule_imports</title>
<polygon fill="none" stroke="black" points="879,-260.8 879,-312.8 1407,-312.8 1407,-260.8 879,-260.8"/>
</g>
<g id="clust13" class="cluster">
<title>cluster_AppModule_bootstrap</title>
<polygon fill="none" stroke="black" points="1056,-404.8 1056,-456.8 1180,-456.8 1180,-404.8 1056,-404.8"/>
</g>
<g id="clust14" class="cluster">
<title>cluster_AppModule_providers</title>
<polygon fill="none" stroke="black" points="1415,-260.8 1415,-312.8 1583,-312.8 1583,-260.8 1415,-260.8"/>
</g>
<g id="clust33" class="cluster">
<title>cluster_CoreModule</title>
<polygon fill="none" stroke="black" stroke-dasharray="1,5" points="254,-176.8 254,-244.8 1951,-244.8 1951,-176.8 254,-176.8"/>
</g>
<g id="clust35" class="cluster">
<title>cluster_CoreModule_imports</title>
<polygon fill="none" stroke="black" points="802,-184.8 802,-236.8 1943,-236.8 1943,-184.8 802,-184.8"/>
</g>
<g id="clust36" class="cluster">
<title>cluster_CoreModule_exports</title>
<polygon fill="none" stroke="black" points="262,-184.8 262,-236.8 794,-236.8 794,-184.8 262,-184.8"/>
</g>
<g id="clust39" class="cluster">
<title>cluster_FooterModule</title>
<polygon fill="none" stroke="black" stroke-dasharray="1,5" points="1599,-252.8 1599,-320.8 1895,-320.8 1895,-252.8 1599,-252.8"/>
</g>
<g id="clust40" class="cluster">
<title>cluster_FooterModule_declarations</title>
<polygon fill="none" stroke="black" points="1753,-260.8 1753,-312.8 1887,-312.8 1887,-260.8 1753,-260.8"/>
</g>
<g id="clust43" class="cluster">
<title>cluster_FooterModule_exports</title>
<polygon fill="none" stroke="black" points="1607,-260.8 1607,-312.8 1745,-312.8 1745,-260.8 1607,-260.8"/>
</g>
<g id="clust46" class="cluster">
<title>cluster_HeaderModule</title>
<polygon fill="none" stroke="black" stroke-dasharray="1,5" points="1903,-252.8 1903,-320.8 2207,-320.8 2207,-252.8 1903,-252.8"/>
</g>
<g id="clust47" class="cluster">
<title>cluster_HeaderModule_declarations</title>
<polygon fill="none" stroke="black" points="2061,-260.8 2061,-312.8 2199,-312.8 2199,-260.8 2061,-260.8"/>
</g>
<g id="clust50" class="cluster">
<title>cluster_HeaderModule_exports</title>
<polygon fill="none" stroke="black" points="1911,-260.8 1911,-312.8 2053,-312.8 2053,-260.8 1911,-260.8"/>
</g>
<g id="clust53" class="cluster">
<title>cluster_HomeModule</title>
<polygon fill="none" stroke="black" stroke-dasharray="1,5" points="1618,-32.8 1618,-160.8 1928,-160.8 1928,-32.8 1618,-32.8"/>
</g>
<g id="clust54" class="cluster">
<title>cluster_HomeModule_declarations</title>
<polygon fill="none" stroke="black" points="1788,-40.8 1788,-92.8 1920,-92.8 1920,-40.8 1788,-40.8"/>
</g>
<g id="clust56" class="cluster">
<title>cluster_HomeModule_imports</title>
<polygon fill="none" stroke="black" points="1626,-40.8 1626,-92.8 1780,-92.8 1780,-40.8 1626,-40.8"/>
</g>
<g id="clust66" class="cluster">
<title>cluster_MapModule</title>
<polygon fill="none" stroke="black" stroke-dasharray="1,5" points="1599,-328.8 1599,-396.8 1871,-396.8 1871,-328.8 1599,-328.8"/>
</g>
<g id="clust67" class="cluster">
<title>cluster_MapModule_declarations</title>
<polygon fill="none" stroke="black" points="1741,-336.8 1741,-388.8 1863,-388.8 1863,-336.8 1741,-336.8"/>
</g>
<g id="clust70" class="cluster">
<title>cluster_MapModule_exports</title>
<polygon fill="none" stroke="black" points="1607,-336.8 1607,-388.8 1733,-388.8 1733,-336.8 1607,-336.8"/>
</g>
<g id="clust73" class="cluster">
<title>cluster_MarkdownModalModule</title>
<polygon fill="none" stroke="black" stroke-dasharray="1,5" points="1879,-328.8 1879,-396.8 2297,-396.8 2297,-328.8 1879,-328.8"/>
</g>
<g id="clust74" class="cluster">
<title>cluster_MarkdownModalModule_declarations</title>
<polygon fill="none" stroke="black" points="2093,-336.8 2093,-388.8 2289,-388.8 2289,-336.8 2093,-336.8"/>
</g>
<g id="clust77" class="cluster">
<title>cluster_MarkdownModalModule_exports</title>
<polygon fill="none" stroke="black" points="1887,-336.8 1887,-388.8 2085,-388.8 2085,-336.8 1887,-336.8"/>
</g>
<g id="clust80" class="cluster">
<title>cluster_MenuModule</title>
<polygon fill="none" stroke="black" stroke-dasharray="1,5" points="783,-100.8 783,-168.8 929,-168.8 929,-100.8 783,-100.8"/>
</g>
<g id="clust81" class="cluster">
<title>cluster_MenuModule_declarations</title>
<polygon fill="none" stroke="black" points="791,-108.8 791,-160.8 921,-160.8 921,-108.8 791,-108.8"/>
</g>
<g id="clust105" class="cluster">
<title>cluster_VisualizerModule</title>
<polygon fill="none" stroke="black" stroke-dasharray="1,5" points="2305,-252.8 2305,-388.8 2661,-388.8 2661,-252.8 2305,-252.8"/>
</g>
<g id="clust106" class="cluster">
<title>cluster_VisualizerModule_declarations</title>
<polygon fill="none" stroke="black" points="2499,-260.8 2499,-312.8 2653,-312.8 2653,-260.8 2499,-260.8"/>
</g>
<g id="clust108" class="cluster">
<title>cluster_VisualizerModule_imports</title>
<polygon fill="none" stroke="black" points="2313,-260.8 2313,-312.8 2491,-312.8 2491,-260.8 2313,-260.8"/>
</g>
<!-- AnalyticsConsentComponent -->
<g id="node1" class="node">
<title>AnalyticsConsentComponent</title>
<polygon fill="#ffffb3" stroke="black" points="208.37,-84.8 27.63,-84.8 27.63,-48.8 208.37,-48.8 208.37,-84.8"/>
<text text-anchor="middle" x="118" y="-62.6" font-family="Times,serif" font-size="14.00">AnalyticsConsentComponent</text>
</g>
<!-- AnalyticsConsentModule -->
<g id="node2" class="node">
<title>AnalyticsConsentModule</title>
<polygon fill="#8dd3c7" stroke="black" points="206.59,-152.8 203.59,-156.8 182.59,-156.8 179.59,-152.8 47.41,-152.8 47.41,-116.8 206.59,-116.8 206.59,-152.8"/>
<text text-anchor="middle" x="127" y="-130.6" font-family="Times,serif" font-size="14.00">AnalyticsConsentModule</text>
</g>
<!-- AnalyticsConsentComponent&#45;&gt;AnalyticsConsentModule -->
<g id="edge1" class="edge">
<title>AnalyticsConsentComponent&#45;&gt;AnalyticsConsentModule</title>
<path fill="none" stroke="black" d="M127,-85.02C127,-85.02 127,-106.53 127,-106.53"/>
<polygon fill="black" stroke="black" points="123.5,-106.53 127,-116.53 130.5,-106.53 123.5,-106.53"/>
</g>
<!-- AnalyticsConsentComponent  -->
<g id="node3" class="node">
<title>AnalyticsConsentComponent </title>
<polygon fill="#fb8072" stroke="black" points="208.37,-228.8 23.63,-228.8 23.63,-192.8 208.37,-192.8 208.37,-228.8"/>
<text text-anchor="middle" x="116" y="-206.6" font-family="Times,serif" font-size="14.00">AnalyticsConsentComponent </text>
</g>
<!-- AnalyticsConsentModule&#45;&gt;AnalyticsConsentComponent  -->
<g id="edge2" class="edge">
<title>AnalyticsConsentModule&#45;&gt;AnalyticsConsentComponent </title>
<path fill="none" stroke="black" stroke-dasharray="5,2" d="M87.23,-152.81C87.23,-152.81 87.23,-182.65 87.23,-182.65"/>
<polygon fill="black" stroke="black" points="83.73,-182.65 87.23,-192.65 90.73,-182.65 83.73,-182.65"/>
</g>
<!-- CoreModule -->
<g id="node7" class="node">
<title>CoreModule</title>
<polygon fill="#8dd3c7" stroke="black" points="973.26,-304.8 970.26,-308.8 949.26,-308.8 946.26,-304.8 886.74,-304.8 886.74,-268.8 973.26,-268.8 973.26,-304.8"/>
<text text-anchor="middle" x="930" y="-282.6" font-family="Times,serif" font-size="14.00">CoreModule</text>
</g>
<!-- AnalyticsConsentModule&#45;&gt;CoreModule -->
<g id="edge10" class="edge">
<title>AnalyticsConsentModule&#45;&gt;CoreModule</title>
<path fill="none" stroke="black" d="M127,-152.84C127,-165.36 127,-179.8 127,-179.8 127,-179.8 907.55,-179.8 907.55,-179.8 907.55,-179.8 907.55,-258.65 907.55,-258.65"/>
<polygon fill="black" stroke="black" points="904.05,-258.65 907.55,-268.65 911.05,-258.65 904.05,-258.65"/>
</g>
<!-- FooterModule -->
<g id="node14" class="node">
<title>FooterModule</title>
<polygon fill="#8dd3c7" stroke="black" points="1817.1,-228.8 1814.1,-232.8 1793.1,-232.8 1790.1,-228.8 1720.9,-228.8 1720.9,-192.8 1817.1,-192.8 1817.1,-228.8"/>
<text text-anchor="middle" x="1769" y="-206.6" font-family="Times,serif" font-size="14.00">FooterModule</text>
</g>
<!-- AnalyticsConsentModule&#45;&gt;FooterModule -->
<g id="edge24" class="edge">
<title>AnalyticsConsentModule&#45;&gt;FooterModule</title>
<path fill="none" stroke="black" d="M166.77,-153.04C166.77,-160.23 166.77,-166.8 166.77,-166.8 166.77,-166.8 1726.04,-166.8 1726.04,-166.8 1726.04,-166.8 1726.04,-182.65 1726.04,-182.65"/>
<polygon fill="black" stroke="black" points="1722.54,-182.65 1726.04,-192.65 1729.54,-182.65 1722.54,-182.65"/>
</g>
<!-- AppComponent -->
<g id="node4" class="node">
<title>AppComponent</title>
<polygon fill="#ffffb3" stroke="black" points="862.94,-304.8 757.06,-304.8 757.06,-268.8 862.94,-268.8 862.94,-304.8"/>
<text text-anchor="middle" x="810" y="-282.6" font-family="Times,serif" font-size="14.00">AppComponent</text>
</g>
<!-- AppModule -->
<g id="node5" class="node">
<title>AppModule</title>
<polygon fill="#8dd3c7" stroke="black" points="1159.66,-380.8 1156.66,-384.8 1135.66,-384.8 1132.66,-380.8 1076.34,-380.8 1076.34,-344.8 1159.66,-344.8 1159.66,-380.8"/>
<text text-anchor="middle" x="1118" y="-358.6" font-family="Times,serif" font-size="14.00">AppModule</text>
</g>
<!-- AppComponent&#45;&gt;AppModule -->
<g id="edge3" class="edge">
<title>AppComponent&#45;&gt;AppModule</title>
<path fill="none" stroke="black" d="M810,-305C810,-329.16 810,-368.8 810,-368.8 810,-368.8 1066.14,-368.8 1066.14,-368.8"/>
<polygon fill="black" stroke="black" points="1066.14,-372.3 1076.14,-368.8 1066.14,-365.3 1066.14,-372.3"/>
</g>
<!-- AppComponent  -->
<g id="node10" class="node">
<title>AppComponent </title>
<polygon fill="#80b1d3" stroke="black" points="1172.44,-448.8 1063.56,-448.8 1063.56,-412.8 1172.44,-412.8 1172.44,-448.8"/>
<text text-anchor="middle" x="1118" y="-426.6" font-family="Times,serif" font-size="14.00">AppComponent </text>
</g>
<!-- AppModule&#45;&gt;AppComponent  -->
<g id="edge8" class="edge">
<title>AppModule&#45;&gt;AppComponent </title>
<path fill="none" stroke="black" stroke-dasharray="1,5" d="M1118,-381.02C1118,-381.02 1118,-402.53 1118,-402.53"/>
<polygon fill="black" stroke="black" points="1114.5,-402.53 1118,-412.53 1121.5,-402.53 1114.5,-402.53"/>
</g>
<!-- AppRoutingModule -->
<g id="node6" class="node">
<title>AppRoutingModule</title>
<polygon fill="#8dd3c7" stroke="black" points="1120.27,-304.8 1117.27,-308.8 1096.27,-308.8 1093.27,-304.8 991.73,-304.8 991.73,-268.8 1120.27,-268.8 1120.27,-304.8"/>
<text text-anchor="middle" x="1056" y="-282.6" font-family="Times,serif" font-size="14.00">AppRoutingModule</text>
</g>
<!-- AppRoutingModule&#45;&gt;AppModule -->
<g id="edge4" class="edge">
<title>AppRoutingModule&#45;&gt;AppModule</title>
<path fill="none" stroke="black" d="M1098.28,-304.81C1098.28,-304.81 1098.28,-334.65 1098.28,-334.65"/>
<polygon fill="black" stroke="black" points="1094.78,-334.65 1098.28,-344.65 1101.78,-334.65 1094.78,-334.65"/>
</g>
<!-- CoreModule&#45;&gt;AppModule -->
<g id="edge5" class="edge">
<title>CoreModule&#45;&gt;AppModule</title>
<path fill="none" stroke="black" d="M930,-304.83C930,-325.57 930,-356.8 930,-356.8 930,-356.8 1066.28,-356.8 1066.28,-356.8"/>
<polygon fill="black" stroke="black" points="1066.28,-360.3 1076.28,-356.8 1066.28,-353.3 1066.28,-360.3"/>
</g>
<!-- AnalyticsConsentModule  -->
<g id="node20" class="node">
<title>AnalyticsConsentModule </title>
<polygon fill="#fb8072" stroke="black" points="786.09,-228.8 623.91,-228.8 623.91,-192.8 786.09,-192.8 786.09,-228.8"/>
<text text-anchor="middle" x="705" y="-206.6" font-family="Times,serif" font-size="14.00">AnalyticsConsentModule </text>
</g>
<!-- CoreModule&#45;&gt;AnalyticsConsentModule  -->
<g id="edge19" class="edge">
<title>CoreModule&#45;&gt;AnalyticsConsentModule </title>
<path fill="none" stroke="black" stroke-dasharray="5,2" d="M896.94,-268.52C896.94,-252.85 896.94,-232.8 896.94,-232.8 896.94,-232.8 771.79,-232.8 771.79,-232.8 771.79,-232.8 771.79,-232.42 771.79,-232.42"/>
<polygon fill="black" stroke="black" points="775.29,-238.97 771.79,-228.97 768.29,-238.97 775.29,-238.97"/>
</g>
<!-- FooterModule  -->
<g id="node21" class="node">
<title>FooterModule </title>
<polygon fill="#fb8072" stroke="black" points="605.6,-228.8 506.4,-228.8 506.4,-192.8 605.6,-192.8 605.6,-228.8"/>
<text text-anchor="middle" x="556" y="-206.6" font-family="Times,serif" font-size="14.00">FooterModule </text>
</g>
<!-- CoreModule&#45;&gt;FooterModule  -->
<g id="edge20" class="edge">
<title>CoreModule&#45;&gt;FooterModule </title>
<path fill="none" stroke="black" stroke-dasharray="5,2" d="M894.36,-268.68C894.36,-254.02 894.36,-235.8 894.36,-235.8 894.36,-235.8 556,-235.8 556,-235.8 556,-235.8 556,-235.12 556,-235.12"/>
<polygon fill="black" stroke="black" points="559.5,-238.97 556,-228.97 552.5,-238.97 559.5,-238.97"/>
</g>
<!-- HeaderModule  -->
<g id="node22" class="node">
<title>HeaderModule </title>
<polygon fill="#fb8072" stroke="black" points="487.96,-228.8 384.04,-228.8 384.04,-192.8 487.96,-192.8 487.96,-228.8"/>
<text text-anchor="middle" x="436" y="-206.6" font-family="Times,serif" font-size="14.00">HeaderModule </text>
</g>
<!-- CoreModule&#45;&gt;HeaderModule  -->
<g id="edge21" class="edge">
<title>CoreModule&#45;&gt;HeaderModule </title>
<path fill="none" stroke="black" stroke-dasharray="5,2" d="M891.78,-268.65C891.78,-255.06 891.78,-238.8 891.78,-238.8 891.78,-238.8 436,-238.8 436,-238.8 436,-238.8 436,-237.82 436,-237.82"/>
<polygon fill="black" stroke="black" points="439.5,-239.01 436,-229.01 432.5,-239.01 439.5,-239.01"/>
</g>
<!-- MenuModule  -->
<g id="node23" class="node">
<title>MenuModule </title>
<polygon fill="#fb8072" stroke="black" points="365.71,-228.8 270.29,-228.8 270.29,-192.8 365.71,-192.8 365.71,-228.8"/>
<text text-anchor="middle" x="318" y="-206.6" font-family="Times,serif" font-size="14.00">MenuModule </text>
</g>
<!-- CoreModule&#45;&gt;MenuModule  -->
<g id="edge22" class="edge">
<title>CoreModule&#45;&gt;MenuModule </title>
<path fill="none" stroke="black" stroke-dasharray="5,2" d="M889.2,-268.65C889.2,-256.53 889.2,-242.8 889.2,-242.8 889.2,-242.8 318,-242.8 318,-242.8 318,-242.8 318,-239.04 318,-239.04"/>
<polygon fill="black" stroke="black" points="321.5,-239.04 318,-229.04 314.5,-239.04 321.5,-239.04"/>
</g>
<!-- MapModule -->
<g id="node8" class="node">
<title>MapModule</title>
<polygon fill="#8dd3c7" stroke="black" points="1223.71,-304.8 1220.71,-308.8 1199.71,-308.8 1196.71,-304.8 1138.29,-304.8 1138.29,-268.8 1223.71,-268.8 1223.71,-304.8"/>
<text text-anchor="middle" x="1181" y="-282.6" font-family="Times,serif" font-size="14.00">MapModule</text>
</g>
<!-- MapModule&#45;&gt;AppModule -->
<g id="edge6" class="edge">
<title>MapModule&#45;&gt;AppModule</title>
<path fill="none" stroke="black" d="M1149.11,-304.81C1149.11,-304.81 1149.11,-334.65 1149.11,-334.65"/>
<polygon fill="black" stroke="black" points="1145.61,-334.65 1149.11,-344.65 1152.61,-334.65 1145.61,-334.65"/>
</g>
<!-- MapComponent  -->
<g id="node32" class="node">
<title>MapComponent </title>
<polygon fill="#fb8072" stroke="black" points="1725.49,-380.8 1614.51,-380.8 1614.51,-344.8 1725.49,-344.8 1725.49,-380.8"/>
<text text-anchor="middle" x="1670" y="-358.6" font-family="Times,serif" font-size="14.00">MapComponent </text>
</g>
<!-- MapModule&#45;&gt;MapComponent  -->
<g id="edge32" class="edge">
<title>MapModule&#45;&gt;MapComponent </title>
<path fill="none" stroke="black" stroke-dasharray="5,2" d="M1210.82,-305.11C1210.82,-324.95 1210.82,-353.8 1210.82,-353.8 1210.82,-353.8 1604.61,-353.8 1604.61,-353.8"/>
<polygon fill="black" stroke="black" points="1604.61,-357.3 1614.61,-353.8 1604.61,-350.3 1604.61,-357.3"/>
</g>
<!-- VisualizerModule -->
<g id="node37" class="node">
<title>VisualizerModule</title>
<polygon fill="#8dd3c7" stroke="black" points="2445.58,-380.8 2442.58,-384.8 2421.58,-384.8 2418.58,-380.8 2328.42,-380.8 2328.42,-344.8 2445.58,-344.8 2445.58,-380.8"/>
<text text-anchor="middle" x="2387" y="-358.6" font-family="Times,serif" font-size="14.00">VisualizerModule</text>
</g>
<!-- MapModule&#45;&gt;VisualizerModule -->
<g id="edge37" class="edge">
<title>MapModule&#45;&gt;VisualizerModule</title>
<path fill="none" stroke="black" d="M1185.25,-305.04C1185.25,-312.23 1185.25,-318.8 1185.25,-318.8 1185.25,-318.8 2357.73,-318.8 2357.73,-318.8 2357.73,-318.8 2357.73,-334.65 2357.73,-334.65"/>
<polygon fill="black" stroke="black" points="2354.23,-334.65 2357.73,-344.65 2361.23,-334.65 2354.23,-334.65"/>
</g>
<!-- MarkdownModalModule -->
<g id="node9" class="node">
<title>MarkdownModalModule</title>
<polygon fill="#8dd3c7" stroke="black" points="1398.53,-304.8 1395.53,-308.8 1374.53,-308.8 1371.53,-304.8 1241.47,-304.8 1241.47,-268.8 1398.53,-268.8 1398.53,-304.8"/>
<text text-anchor="middle" x="1320" y="-282.6" font-family="Times,serif" font-size="14.00">MarkdownModalModule</text>
</g>
<!-- MarkdownModalModule&#45;&gt;AppModule -->
<g id="edge7" class="edge">
<title>MarkdownModalModule&#45;&gt;AppModule</title>
<path fill="none" stroke="black" d="M1359.38,-304.81C1359.38,-327.29 1359.38,-362.8 1359.38,-362.8 1359.38,-362.8 1169.77,-362.8 1169.77,-362.8"/>
<polygon fill="black" stroke="black" points="1169.77,-359.3 1159.77,-362.8 1169.77,-366.3 1169.77,-359.3"/>
</g>
<!-- MarkdownModalModule&#45;&gt;FooterModule -->
<g id="edge25" class="edge">
<title>MarkdownModalModule&#45;&gt;FooterModule</title>
<path fill="none" stroke="black" d="M1319.03,-268.72C1319.03,-266.95 1319.03,-265.8 1319.03,-265.8 1319.03,-265.8 1728.82,-265.8 1728.82,-265.8 1728.82,-265.8 1728.82,-238.81 1728.82,-238.81"/>
<polygon fill="black" stroke="black" points="1732.32,-238.81 1728.82,-228.81 1725.32,-238.81 1732.32,-238.81"/>
</g>
<!-- MarkdownModalComponent  -->
<g id="node34" class="node">
<title>MarkdownModalComponent </title>
<polygon fill="#fb8072" stroke="black" points="2077.31,-380.8 1894.69,-380.8 1894.69,-344.8 2077.31,-344.8 2077.31,-380.8"/>
<text text-anchor="middle" x="1986" y="-358.6" font-family="Times,serif" font-size="14.00">MarkdownModalComponent </text>
</g>
<!-- MarkdownModalModule&#45;&gt;MarkdownModalComponent  -->
<g id="edge34" class="edge">
<title>MarkdownModalModule&#45;&gt;MarkdownModalComponent </title>
<path fill="none" stroke="black" stroke-dasharray="5,2" d="M1320,-304.84C1320,-317.36 1320,-331.8 1320,-331.8 1320,-331.8 1906.99,-331.8 1906.99,-331.8 1906.99,-331.8 1906.99,-334.77 1906.99,-334.77"/>
<polygon fill="black" stroke="black" points="1903.49,-334.77 1906.99,-344.77 1910.49,-334.77 1903.49,-334.77"/>
</g>
<!-- MapDataService -->
<g id="node11" class="node">
<title>MapDataService</title>
<ellipse fill="#fdb462" stroke="black" cx="1499" cy="-286.8" rx="75.84" ry="18"/>
<text text-anchor="middle" x="1499" y="-282.6" font-family="Times,serif" font-size="14.00">MapDataService</text>
</g>
<!-- MapDataService&#45;&gt;AppModule -->
<g id="edge9" class="edge">
<title>MapDataService&#45;&gt;AppModule</title>
<path fill="none" stroke="black" d="M1524.31,-304C1524.31,-328.84 1524.31,-371.8 1524.31,-371.8 1524.31,-371.8 1169.95,-371.8 1169.95,-371.8"/>
<polygon fill="black" stroke="black" points="1169.95,-368.3 1159.95,-371.8 1169.95,-375.3 1169.95,-368.3"/>
</g>
<!-- MapDataService&#45;&gt;VisualizerModule -->
<g id="edge39" class="edge">
<title>MapDataService&#45;&gt;VisualizerModule</title>
<path fill="none" stroke="black" d="M1473.69,-303.89C1473.69,-308.28 1473.69,-311.8 1473.69,-311.8 1473.69,-311.8 2387,-311.8 2387,-311.8 2387,-311.8 2387,-334.68 2387,-334.68"/>
<polygon fill="black" stroke="black" points="2383.5,-334.68 2387,-344.68 2390.5,-334.68 2383.5,-334.68"/>
</g>
<!-- BaseModalModule -->
<g id="node12" class="node">
<title>BaseModalModule</title>
<polygon fill="#8dd3c7" stroke="black" points="1183.81,-228.8 1180.81,-232.8 1159.81,-232.8 1156.81,-228.8 1060.19,-228.8 1060.19,-192.8 1183.81,-192.8 1183.81,-228.8"/>
<text text-anchor="middle" x="1122" y="-206.6" font-family="Times,serif" font-size="14.00">BaseModalModule</text>
</g>
<!-- BaseModalModule&#45;&gt;CoreModule -->
<g id="edge11" class="edge">
<title>BaseModalModule&#45;&gt;CoreModule</title>
<path fill="none" stroke="black" d="M1090.37,-229.12C1090.37,-237.59 1090.37,-245.8 1090.37,-245.8 1090.37,-245.8 933.14,-245.8 933.14,-245.8 933.14,-245.8 933.14,-258.7 933.14,-258.7"/>
<polygon fill="black" stroke="black" points="929.64,-258.7 933.14,-268.7 936.64,-258.7 929.64,-258.7"/>
</g>
<!-- BasePopupModule -->
<g id="node13" class="node">
<title>BasePopupModule</title>
<polygon fill="#8dd3c7" stroke="black" points="1042.04,-228.8 1039.04,-232.8 1018.04,-232.8 1015.04,-228.8 919.96,-228.8 919.96,-192.8 1042.04,-192.8 1042.04,-228.8"/>
<text text-anchor="middle" x="981" y="-206.6" font-family="Times,serif" font-size="14.00">BasePopupModule</text>
</g>
<!-- BasePopupModule&#45;&gt;CoreModule -->
<g id="edge12" class="edge">
<title>BasePopupModule&#45;&gt;CoreModule</title>
<path fill="none" stroke="black" d="M926.44,-228.81C926.44,-228.81 926.44,-258.65 926.44,-258.65"/>
<polygon fill="black" stroke="black" points="922.94,-258.65 926.44,-268.65 929.94,-258.65 922.94,-258.65"/>
</g>
<!-- FooterModule&#45;&gt;CoreModule -->
<g id="edge13" class="edge">
<title>FooterModule&#45;&gt;CoreModule</title>
<path fill="none" stroke="black" d="M1724.89,-228.95C1724.89,-242.54 1724.89,-258.8 1724.89,-258.8 1724.89,-258.8 959.97,-258.8 959.97,-258.8 959.97,-258.8 959.97,-259.78 959.97,-259.78"/>
<polygon fill="black" stroke="black" points="956.47,-258.59 959.97,-268.59 963.47,-258.59 956.47,-258.59"/>
</g>
<!-- FooterComponent  -->
<g id="node25" class="node">
<title>FooterComponent </title>
<polygon fill="#fb8072" stroke="black" points="1736.88,-304.8 1615.12,-304.8 1615.12,-268.8 1736.88,-268.8 1736.88,-304.8"/>
<text text-anchor="middle" x="1676" y="-282.6" font-family="Times,serif" font-size="14.00">FooterComponent </text>
</g>
<!-- FooterModule&#45;&gt;FooterComponent  -->
<g id="edge26" class="edge">
<title>FooterModule&#45;&gt;FooterComponent </title>
<path fill="none" stroke="black" stroke-dasharray="5,2" d="M1732.76,-228.81C1732.76,-228.81 1732.76,-258.65 1732.76,-258.65"/>
<polygon fill="black" stroke="black" points="1729.26,-258.65 1732.76,-268.65 1736.26,-258.65 1729.26,-258.65"/>
</g>
<!-- HeaderModule -->
<g id="node15" class="node">
<title>HeaderModule</title>
<polygon fill="#8dd3c7" stroke="black" points="1934.96,-228.8 1931.96,-232.8 1910.96,-232.8 1907.96,-228.8 1835.04,-228.8 1835.04,-192.8 1934.96,-192.8 1934.96,-228.8"/>
<text text-anchor="middle" x="1885" y="-206.6" font-family="Times,serif" font-size="14.00">HeaderModule</text>
</g>
<!-- HeaderModule&#45;&gt;CoreModule -->
<g id="edge14" class="edge">
<title>HeaderModule&#45;&gt;CoreModule</title>
<path fill="none" stroke="black" d="M1856.98,-228.99C1856.98,-243.98 1856.98,-262.8 1856.98,-262.8 1856.98,-262.8 966.67,-262.8 966.67,-262.8 966.67,-262.8 966.67,-263.38 966.67,-263.38"/>
<polygon fill="black" stroke="black" points="963.17,-258.61 966.67,-268.61 970.17,-258.61 963.17,-258.61"/>
</g>
<!-- HeaderComponent  -->
<g id="node27" class="node">
<title>HeaderComponent </title>
<polygon fill="#fb8072" stroke="black" points="2044.74,-304.8 1919.26,-304.8 1919.26,-268.8 2044.74,-268.8 2044.74,-304.8"/>
<text text-anchor="middle" x="1982" y="-282.6" font-family="Times,serif" font-size="14.00">HeaderComponent </text>
</g>
<!-- HeaderModule&#45;&gt;HeaderComponent  -->
<g id="edge28" class="edge">
<title>HeaderModule&#45;&gt;HeaderComponent </title>
<path fill="none" stroke="black" stroke-dasharray="5,2" d="M1927.18,-228.81C1927.18,-228.81 1927.18,-258.65 1927.18,-258.65"/>
<polygon fill="black" stroke="black" points="1923.68,-258.65 1927.18,-268.65 1930.68,-258.65 1923.68,-258.65"/>
</g>
<!-- MenuModule -->
<g id="node16" class="node">
<title>MenuModule</title>
<polygon fill="#8dd3c7" stroke="black" points="902.21,-228.8 899.21,-232.8 878.21,-232.8 875.21,-228.8 809.79,-228.8 809.79,-192.8 902.21,-192.8 902.21,-228.8"/>
<text text-anchor="middle" x="856" y="-206.6" font-family="Times,serif" font-size="14.00">MenuModule</text>
</g>
<!-- MenuModule&#45;&gt;CoreModule -->
<g id="edge15" class="edge">
<title>MenuModule&#45;&gt;CoreModule</title>
<path fill="none" stroke="black" d="M899.52,-228.81C899.52,-228.81 899.52,-258.65 899.52,-258.65"/>
<polygon fill="black" stroke="black" points="896.02,-258.65 899.52,-268.65 903.02,-258.65 896.02,-258.65"/>
</g>
<!-- MousePositionCollectorModule -->
<g id="node17" class="node">
<title>MousePositionCollectorModule</title>
<polygon fill="#8dd3c7" stroke="black" points="1396.65,-228.8 1393.65,-232.8 1372.65,-232.8 1369.65,-228.8 1201.35,-228.8 1201.35,-192.8 1396.65,-192.8 1396.65,-228.8"/>
<text text-anchor="middle" x="1299" y="-206.6" font-family="Times,serif" font-size="14.00">MousePositionCollectorModule</text>
</g>
<!-- MousePositionCollectorModule&#45;&gt;CoreModule -->
<g id="edge16" class="edge">
<title>MousePositionCollectorModule&#45;&gt;CoreModule</title>
<path fill="none" stroke="black" d="M1212.39,-228.91C1212.39,-238.7 1212.39,-248.8 1212.39,-248.8 1212.39,-248.8 939.85,-248.8 939.85,-248.8 939.85,-248.8 939.85,-258.69 939.85,-258.69"/>
<polygon fill="black" stroke="black" points="936.35,-258.69 939.85,-268.69 943.35,-258.69 936.35,-258.69"/>
</g>
<!-- SiteConfigurationModule -->
<g id="node18" class="node">
<title>SiteConfigurationModule</title>
<polygon fill="#8dd3c7" stroke="black" points="1702.87,-228.8 1699.87,-232.8 1678.87,-232.8 1675.87,-228.8 1543.13,-228.8 1543.13,-192.8 1702.87,-192.8 1702.87,-228.8"/>
<text text-anchor="middle" x="1623" y="-206.6" font-family="Times,serif" font-size="14.00">SiteConfigurationModule</text>
</g>
<!-- SiteConfigurationModule&#45;&gt;CoreModule -->
<g id="edge17" class="edge">
<title>SiteConfigurationModule&#45;&gt;CoreModule</title>
<path fill="none" stroke="black" d="M1558.99,-228.84C1558.99,-241.36 1558.99,-255.8 1558.99,-255.8 1558.99,-255.8 953.26,-255.8 953.26,-255.8 953.26,-255.8 953.26,-258.77 953.26,-258.77"/>
<polygon fill="black" stroke="black" points="949.76,-258.77 953.26,-268.77 956.76,-258.77 949.76,-258.77"/>
</g>
<!-- ThemingModule -->
<g id="node19" class="node">
<title>ThemingModule</title>
<polygon fill="#8dd3c7" stroke="black" points="1525.1,-228.8 1522.1,-232.8 1501.1,-232.8 1498.1,-228.8 1414.9,-228.8 1414.9,-192.8 1525.1,-192.8 1525.1,-228.8"/>
<text text-anchor="middle" x="1470" y="-206.6" font-family="Times,serif" font-size="14.00">ThemingModule</text>
</g>
<!-- ThemingModule&#45;&gt;CoreModule -->
<g id="edge18" class="edge">
<title>ThemingModule&#45;&gt;CoreModule</title>
<path fill="none" stroke="black" d="M1419.02,-228.86C1419.02,-240.24 1419.02,-252.8 1419.02,-252.8 1419.02,-252.8 946.55,-252.8 946.55,-252.8 946.55,-252.8 946.55,-258.61 946.55,-258.61"/>
<polygon fill="black" stroke="black" points="943.05,-258.61 946.55,-268.61 950.05,-258.61 943.05,-258.61"/>
</g>
<!-- FooterComponent -->
<g id="node24" class="node">
<title>FooterComponent</title>
<polygon fill="#ffffb3" stroke="black" points="1878.88,-304.8 1761.12,-304.8 1761.12,-268.8 1878.88,-268.8 1878.88,-304.8"/>
<text text-anchor="middle" x="1820" y="-282.6" font-family="Times,serif" font-size="14.00">FooterComponent</text>
</g>
<!-- FooterComponent&#45;&gt;FooterModule -->
<g id="edge23" class="edge">
<title>FooterComponent&#45;&gt;FooterModule</title>
<path fill="none" stroke="black" d="M1789.05,-268.79C1789.05,-268.79 1789.05,-238.95 1789.05,-238.95"/>
<polygon fill="black" stroke="black" points="1792.55,-238.95 1789.05,-228.95 1785.55,-238.95 1792.55,-238.95"/>
</g>
<!-- HeaderComponent -->
<g id="node26" class="node">
<title>HeaderComponent</title>
<polygon fill="#ffffb3" stroke="black" points="2190.74,-304.8 2069.26,-304.8 2069.26,-268.8 2190.74,-268.8 2190.74,-304.8"/>
<text text-anchor="middle" x="2130" y="-282.6" font-family="Times,serif" font-size="14.00">HeaderComponent</text>
</g>
<!-- HeaderComponent&#45;&gt;HeaderModule -->
<g id="edge27" class="edge">
<title>HeaderComponent&#45;&gt;HeaderModule</title>
<path fill="none" stroke="black" d="M2130,-268.79C2130,-246.31 2130,-210.8 2130,-210.8 2130,-210.8 1945.17,-210.8 1945.17,-210.8"/>
<polygon fill="black" stroke="black" points="1945.17,-207.3 1935.17,-210.8 1945.17,-214.3 1945.17,-207.3"/>
</g>
<!-- HomeComponent -->
<g id="node28" class="node">
<title>HomeComponent</title>
<polygon fill="#ffffb3" stroke="black" points="1911.55,-84.8 1796.45,-84.8 1796.45,-48.8 1911.55,-48.8 1911.55,-84.8"/>
<text text-anchor="middle" x="1854" y="-62.6" font-family="Times,serif" font-size="14.00">HomeComponent</text>
</g>
<!-- HomeModule -->
<g id="node29" class="node">
<title>HomeModule</title>
<polygon fill="#8dd3c7" stroke="black" points="1824.76,-152.8 1821.76,-156.8 1800.76,-156.8 1797.76,-152.8 1731.24,-152.8 1731.24,-116.8 1824.76,-116.8 1824.76,-152.8"/>
<text text-anchor="middle" x="1778" y="-130.6" font-family="Times,serif" font-size="14.00">HomeModule</text>
</g>
<!-- HomeComponent&#45;&gt;HomeModule -->
<g id="edge29" class="edge">
<title>HomeComponent&#45;&gt;HomeModule</title>
<path fill="none" stroke="black" d="M1810.55,-85.02C1810.55,-85.02 1810.55,-106.53 1810.55,-106.53"/>
<polygon fill="black" stroke="black" points="1807.05,-106.53 1810.55,-116.53 1814.05,-106.53 1807.05,-106.53"/>
</g>
<!-- HomeRoutingModule -->
<g id="node30" class="node">
<title>HomeRoutingModule</title>
<polygon fill="#8dd3c7" stroke="black" points="1772.38,-84.8 1769.38,-88.8 1748.38,-88.8 1745.38,-84.8 1633.62,-84.8 1633.62,-48.8 1772.38,-48.8 1772.38,-84.8"/>
<text text-anchor="middle" x="1703" y="-62.6" font-family="Times,serif" font-size="14.00">HomeRoutingModule</text>
</g>
<!-- HomeRoutingModule&#45;&gt;HomeModule -->
<g id="edge30" class="edge">
<title>HomeRoutingModule&#45;&gt;HomeModule</title>
<path fill="none" stroke="black" d="M1751.78,-85.02C1751.78,-85.02 1751.78,-106.53 1751.78,-106.53"/>
<polygon fill="black" stroke="black" points="1748.28,-106.53 1751.78,-116.53 1755.28,-106.53 1748.28,-106.53"/>
</g>
<!-- MapComponent -->
<g id="node31" class="node">
<title>MapComponent</title>
<polygon fill="#ffffb3" stroke="black" points="1855.49,-380.8 1748.51,-380.8 1748.51,-344.8 1855.49,-344.8 1855.49,-380.8"/>
<text text-anchor="middle" x="1802" y="-358.6" font-family="Times,serif" font-size="14.00">MapComponent</text>
</g>
<!-- MapComponent&#45;&gt;MapModule -->
<g id="edge31" class="edge">
<title>MapComponent&#45;&gt;MapModule</title>
<path fill="none" stroke="black" d="M1754.78,-344.61C1754.78,-341.26 1754.78,-338.8 1754.78,-338.8 1754.78,-338.8 1198.04,-338.8 1198.04,-338.8 1198.04,-338.8 1198.04,-314.99 1198.04,-314.99"/>
<polygon fill="black" stroke="black" points="1201.54,-314.99 1198.04,-304.99 1194.54,-314.99 1201.54,-314.99"/>
</g>
<!-- MarkdownModalComponent -->
<g id="node33" class="node">
<title>MarkdownModalComponent</title>
<polygon fill="#ffffb3" stroke="black" points="2280.81,-380.8 2101.19,-380.8 2101.19,-344.8 2280.81,-344.8 2280.81,-380.8"/>
<text text-anchor="middle" x="2191" y="-358.6" font-family="Times,serif" font-size="14.00">MarkdownModalComponent</text>
</g>
<!-- MarkdownModalComponent&#45;&gt;MarkdownModalModule -->
<g id="edge33" class="edge">
<title>MarkdownModalComponent&#45;&gt;MarkdownModalModule</title>
<path fill="none" stroke="black" d="M2146.11,-344.69C2146.11,-334.9 2146.11,-324.8 2146.11,-324.8 2146.11,-324.8 1280.62,-324.8 1280.62,-324.8 1280.62,-324.8 1280.62,-314.91 1280.62,-314.91"/>
<polygon fill="black" stroke="black" points="1284.12,-314.91 1280.62,-304.91 1277.12,-314.91 1284.12,-314.91"/>
</g>
<!-- MenuComponent -->
<g id="node35" class="node">
<title>MenuComponent</title>
<polygon fill="#ffffb3" stroke="black" points="912.99,-152.8 799.01,-152.8 799.01,-116.8 912.99,-116.8 912.99,-152.8"/>
<text text-anchor="middle" x="856" y="-130.6" font-family="Times,serif" font-size="14.00">MenuComponent</text>
</g>
<!-- MenuComponent&#45;&gt;MenuModule -->
<g id="edge35" class="edge">
<title>MenuComponent&#45;&gt;MenuModule</title>
<path fill="none" stroke="black" d="M856,-152.81C856,-152.81 856,-182.65 856,-182.65"/>
<polygon fill="black" stroke="black" points="852.5,-182.65 856,-192.65 859.5,-182.65 852.5,-182.65"/>
</g>
<!-- VisualizerComponent -->
<g id="node36" class="node">
<title>VisualizerComponent</title>
<polygon fill="#ffffb3" stroke="black" points="2645.36,-304.8 2506.64,-304.8 2506.64,-268.8 2645.36,-268.8 2645.36,-304.8"/>
<text text-anchor="middle" x="2576" y="-282.6" font-family="Times,serif" font-size="14.00">VisualizerComponent</text>
</g>
<!-- VisualizerComponent&#45;&gt;VisualizerModule -->
<g id="edge36" class="edge">
<title>VisualizerComponent&#45;&gt;VisualizerModule</title>
<path fill="none" stroke="black" d="M2576,-304.81C2576,-327.29 2576,-362.8 2576,-362.8 2576,-362.8 2455.76,-362.8 2455.76,-362.8"/>
<polygon fill="black" stroke="black" points="2455.76,-359.3 2445.76,-362.8 2455.76,-366.3 2455.76,-359.3"/>
</g>
<!-- VisualizerRoutingModule -->
<g id="node38" class="node">
<title>VisualizerRoutingModule</title>
<polygon fill="#8dd3c7" stroke="black" points="2483.2,-304.8 2480.2,-308.8 2459.2,-308.8 2456.2,-304.8 2320.8,-304.8 2320.8,-268.8 2483.2,-268.8 2483.2,-304.8"/>
<text text-anchor="middle" x="2402" y="-282.6" font-family="Times,serif" font-size="14.00">VisualizerRoutingModule</text>
</g>
<!-- VisualizerRoutingModule&#45;&gt;VisualizerModule -->
<g id="edge38" class="edge">
<title>VisualizerRoutingModule&#45;&gt;VisualizerModule</title>
<path fill="none" stroke="black" d="M2416.27,-304.81C2416.27,-304.81 2416.27,-334.65 2416.27,-334.65"/>
<polygon fill="black" stroke="black" points="2412.77,-334.65 2416.27,-344.65 2419.77,-334.65 2412.77,-334.65"/>
</g>
</g>
</svg>
