<?xml version="1.0" encoding="UTF-8" standalone="no"?>
<!DOCTYPE svg PUBLIC "-//W3C//DTD SVG 1.1//EN"
 "http://www.w3.org/Graphics/SVG/1.1/DTD/svg11.dtd">
<!-- Generated by graphviz version 2.47.3 (20210619.1520)
 -->
<!-- Title: dependencies Pages: 1 -->
<svg width="874pt" height="247pt"
 viewBox="0.00 0.00 874.00 246.80" xmlns="http://www.w3.org/2000/svg" xmlns:xlink="http://www.w3.org/1999/xlink">
<g id="graph0" class="graph" transform="scale(1 1) rotate(0) translate(4 242.8)">
<title>dependencies</title>
<polygon fill="white" stroke="transparent" points="-4,4 -4,-242.8 870,-242.8 870,4 -4,4"/>
<text text-anchor="middle" x="433" y="-8.2" font-family="sans-serif" font-size="14.00">dependencies</text>
<g id="clust1" class="cluster">
<title>cluster_AppModule</title>
<polygon fill="none" stroke="black" stroke-dasharray="1,5" points="8,-32.8 8,-230.8 858,-230.8 858,-32.8 8,-32.8"/>
</g>
<g id="clust2" class="cluster">
<title>cluster_AppModule_declarations</title>
<polygon fill="none" stroke="black" points="728,-40.8 728,-92.8 850,-92.8 850,-40.8 728,-40.8"/>
</g>
<g id="clust4" class="cluster">
<title>cluster_AppModule_imports</title>
<polygon fill="none" stroke="black" points="192,-40.8 192,-92.8 720,-92.8 720,-40.8 192,-40.8"/>
</g>
<g id="clust6" class="cluster">
<title>cluster_AppModule_bootstrap</title>
<polygon fill="none" stroke="black" points="408,-170.8 408,-222.8 532,-222.8 532,-170.8 408,-170.8"/>
</g>
<g id="clust7" class="cluster">
<title>cluster_AppModule_providers</title>
<polygon fill="none" stroke="black" points="16,-40.8 16,-92.8 184,-92.8 184,-40.8 16,-40.8"/>
</g>
<!-- AppComponent -->
<g id="node1" class="node">
<title>AppComponent</title>
<polygon fill="#ffffb3" stroke="black" points="841.94,-84.8 736.06,-84.8 736.06,-48.8 841.94,-48.8 841.94,-84.8"/>
<text text-anchor="middle" x="789" y="-62.6" font-family="Times,serif" font-size="14.00">AppComponent</text>
</g>
<!-- AppModule -->
<g id="node2" class="node">
<title>AppModule</title>
<polygon fill="#8dd3c7" stroke="black" points="511.66,-149.8 508.66,-153.8 487.66,-153.8 484.66,-149.8 428.34,-149.8 428.34,-113.8 511.66,-113.8 511.66,-149.8"/>
<text text-anchor="middle" x="470" y="-127.6" font-family="Times,serif" font-size="14.00">AppModule</text>
</g>
<!-- AppComponent&#45;&gt;AppModule -->
<g id="edge1" class="edge">
<title>AppComponent&#45;&gt;AppModule</title>
<path fill="none" stroke="black" d="M789,-85.08C789,-106.12 789,-137.8 789,-137.8 789,-137.8 521.7,-137.8 521.7,-137.8"/>
<polygon fill="black" stroke="black" points="521.7,-134.3 511.7,-137.8 521.7,-141.3 521.7,-134.3"/>
</g>
<!-- AppComponent  -->
<g id="node7" class="node">
<title>AppComponent </title>
<polygon fill="#80b1d3" stroke="black" points="524.44,-214.8 415.56,-214.8 415.56,-178.8 524.44,-178.8 524.44,-214.8"/>
<text text-anchor="middle" x="470" y="-192.6" font-family="Times,serif" font-size="14.00">AppComponent </text>
</g>
<!-- AppModule&#45;&gt;AppComponent  -->
<g id="edge6" class="edge">
<title>AppModule&#45;&gt;AppComponent </title>
<path fill="none" stroke="black" stroke-dasharray="1,5" d="M470,-149.91C470,-149.91 470,-168.79 470,-168.79"/>
<polygon fill="black" stroke="black" points="466.5,-168.79 470,-178.79 473.5,-168.79 466.5,-168.79"/>
</g>
<!-- AppRoutingModule -->
<g id="node3" class="node">
<title>AppRoutingModule</title>
<polygon fill="#8dd3c7" stroke="black" points="712.27,-84.8 709.27,-88.8 688.27,-88.8 685.27,-84.8 583.73,-84.8 583.73,-48.8 712.27,-48.8 712.27,-84.8"/>
<text text-anchor="middle" x="648" y="-62.6" font-family="Times,serif" font-size="14.00">AppRoutingModule</text>
</g>
<!-- AppRoutingModule&#45;&gt;AppModule -->
<g id="edge2" class="edge">
<title>AppRoutingModule&#45;&gt;AppModule</title>
<path fill="none" stroke="black" d="M648,-84.82C648,-102.17 648,-125.8 648,-125.8 648,-125.8 521.73,-125.8 521.73,-125.8"/>
<polygon fill="black" stroke="black" points="521.73,-122.3 511.73,-125.8 521.73,-129.3 521.73,-122.3"/>
</g>
<!-- CoreModule -->
<g id="node4" class="node">
<title>CoreModule</title>
<polygon fill="#8dd3c7" stroke="black" points="565.26,-84.8 562.26,-88.8 541.26,-88.8 538.26,-84.8 478.74,-84.8 478.74,-48.8 565.26,-48.8 565.26,-84.8"/>
<text text-anchor="middle" x="522" y="-62.6" font-family="Times,serif" font-size="14.00">CoreModule</text>
</g>
<!-- CoreModule&#45;&gt;AppModule -->
<g id="edge3" class="edge">
<title>CoreModule&#45;&gt;AppModule</title>
<path fill="none" stroke="black" d="M495.22,-84.91C495.22,-84.91 495.22,-103.79 495.22,-103.79"/>
<polygon fill="black" stroke="black" points="491.72,-103.79 495.22,-113.79 498.72,-103.79 491.72,-103.79"/>
</g>
<!-- MapModule -->
<g id="node5" class="node">
<title>MapModule</title>
<polygon fill="#8dd3c7" stroke="black" points="460.71,-84.8 457.71,-88.8 436.71,-88.8 433.71,-84.8 375.29,-84.8 375.29,-48.8 460.71,-48.8 460.71,-84.8"/>
<text text-anchor="middle" x="418" y="-62.6" font-family="Times,serif" font-size="14.00">MapModule</text>
</g>
<!-- MapModule&#45;&gt;AppModule -->
<g id="edge4" class="edge">
<title>MapModule&#45;&gt;AppModule</title>
<path fill="none" stroke="black" d="M444.39,-84.91C444.39,-84.91 444.39,-103.79 444.39,-103.79"/>
<polygon fill="black" stroke="black" points="440.89,-103.79 444.39,-113.79 447.89,-103.79 440.89,-103.79"/>
</g>
<!-- MarkdownModalModule -->
<g id="node6" class="node">
<title>MarkdownModalModule</title>
<polygon fill="#8dd3c7" stroke="black" points="357.53,-84.8 354.53,-88.8 333.53,-88.8 330.53,-84.8 200.47,-84.8 200.47,-48.8 357.53,-48.8 357.53,-84.8"/>
<text text-anchor="middle" x="279" y="-62.6" font-family="Times,serif" font-size="14.00">MarkdownModalModule</text>
</g>
<!-- MarkdownModalModule&#45;&gt;AppModule -->
<g id="edge5" class="edge">
<title>MarkdownModalModule&#45;&gt;AppModule</title>
<path fill="none" stroke="black" d="M279,-84.82C279,-102.17 279,-125.8 279,-125.8 279,-125.8 418.08,-125.8 418.08,-125.8"/>
<polygon fill="black" stroke="black" points="418.08,-129.3 428.08,-125.8 418.08,-122.3 418.08,-129.3"/>
</g>
<!-- MapDataService -->
<g id="node8" class="node">
<title>MapDataService</title>
<ellipse fill="#fdb462" stroke="black" cx="100" cy="-66.8" rx="75.84" ry="18"/>
<text text-anchor="middle" x="100" y="-62.6" font-family="Times,serif" font-size="14.00">MapDataService</text>
</g>
<!-- MapDataService&#45;&gt;AppModule -->
<g id="edge7" class="edge">
<title>MapDataService&#45;&gt;AppModule</title>
<path fill="none" stroke="black" d="M100,-85.08C100,-106.12 100,-137.8 100,-137.8 100,-137.8 418.28,-137.8 418.28,-137.8"/>
<polygon fill="black" stroke="black" points="418.28,-141.3 428.28,-137.8 418.28,-134.3 418.28,-141.3"/>
</g>
</g>
</svg>
