<?xml version="1.0" encoding="UTF-8" standalone="no"?>
<!DOCTYPE svg PUBLIC "-//W3C//DTD SVG 1.1//EN"
 "http://www.w3.org/Graphics/SVG/1.1/DTD/svg11.dtd">
<!-- Generated by graphviz version 2.47.3 (20210619.1520)
 -->
<!-- Title: dependencies Pages: 1 -->
<svg width="874pt" height="247pt"
 viewBox="0.00 0.00 874.00 246.80" xmlns="http://www.w3.org/2000/svg" xmlns:xlink="http://www.w3.org/1999/xlink">
<g id="graph0" class="graph" transform="scale(1 1) rotate(0) translate(4 242.8)">
<title>dependencies</title>
<polygon fill="white" stroke="transparent" points="-4,4 -4,-242.8 870,-242.8 870,4 -4,4"/>
<text text-anchor="middle" x="433" y="-8.2" font-family="sans-serif" font-size="14.00">dependencies</text>
<g id="clust1" class="cluster">
<title>cluster_AppModule</title>
<polygon fill="none" stroke="black" stroke-dasharray="1,5" points="8,-32.8 8,-230.8 858,-230.8 858,-32.8 8,-32.8"/>
</g>
<g id="clust6" class="cluster">
<title>cluster_AppModule_bootstrap</title>
<polygon fill="none" stroke="black" points="347,-170.8 347,-222.8 471,-222.8 471,-170.8 347,-170.8"/>
</g>
<g id="clust2" class="cluster">
<title>cluster_AppModule_declarations</title>
<polygon fill="none" stroke="black" points="728,-40.8 728,-92.8 850,-92.8 850,-40.8 728,-40.8"/>
</g>
<g id="clust7" class="cluster">
<title>cluster_AppModule_providers</title>
<polygon fill="none" stroke="black" points="552,-40.8 552,-92.8 720,-92.8 720,-40.8 552,-40.8"/>
</g>
<g id="clust4" class="cluster">
<title>cluster_AppModule_imports</title>
<polygon fill="none" stroke="black" points="16,-40.8 16,-92.8 544,-92.8 544,-40.8 16,-40.8"/>
</g>
<!-- AppComponent -->
<g id="node1" class="node">
<title>AppComponent</title>
<polygon fill="#ffffb3" stroke="black" points="841.94,-84.8 736.06,-84.8 736.06,-48.8 841.94,-48.8 841.94,-84.8"/>
<text text-anchor="middle" x="789" y="-62.6" font-family="Times,serif" font-size="14.00">AppComponent</text>
</g>
<!-- AppModule -->
<g id="node2" class="node">
<title>AppModule</title>
<polygon fill="#8dd3c7" stroke="black" points="450.66,-149.8 447.66,-153.8 426.66,-153.8 423.66,-149.8 367.34,-149.8 367.34,-113.8 450.66,-113.8 450.66,-149.8"/>
<text text-anchor="middle" x="409" y="-127.6" font-family="Times,serif" font-size="14.00">AppModule</text>
</g>
<!-- AppComponent&#45;&gt;AppModule -->
<g id="edge1" class="edge">
<title>AppComponent&#45;&gt;AppModule</title>
<path fill="none" stroke="black" d="M789,-85.08C789,-106.12 789,-137.8 789,-137.8 789,-137.8 460.75,-137.8 460.75,-137.8"/>
<polygon fill="black" stroke="black" points="460.75,-134.3 450.75,-137.8 460.75,-141.3 460.75,-134.3"/>
</g>
<!-- AppComponent  -->
<g id="node7" class="node">
<title>AppComponent </title>
<polygon fill="#80b1d3" stroke="black" points="463.44,-214.8 354.56,-214.8 354.56,-178.8 463.44,-178.8 463.44,-214.8"/>
<text text-anchor="middle" x="409" y="-192.6" font-family="Times,serif" font-size="14.00">AppComponent </text>
</g>
<!-- AppModule&#45;&gt;AppComponent  -->
<g id="edge6" class="edge">
<title>AppModule&#45;&gt;AppComponent </title>
<path fill="none" stroke="black" stroke-dasharray="1,5" d="M409,-149.91C409,-149.91 409,-168.79 409,-168.79"/>
<polygon fill="black" stroke="black" points="405.5,-168.79 409,-178.79 412.5,-168.79 405.5,-168.79"/>
</g>
<!-- AppRoutingModule -->
<g id="node3" class="node">
<title>AppRoutingModule</title>
<polygon fill="#8dd3c7" stroke="black" points="536.27,-84.8 533.27,-88.8 512.27,-88.8 509.27,-84.8 407.73,-84.8 407.73,-48.8 536.27,-48.8 536.27,-84.8"/>
<text text-anchor="middle" x="472" y="-62.6" font-family="Times,serif" font-size="14.00">AppRoutingModule</text>
</g>
<!-- AppRoutingModule&#45;&gt;AppModule -->
<g id="edge2" class="edge">
<title>AppRoutingModule&#45;&gt;AppModule</title>
<path fill="none" stroke="black" d="M429.22,-84.91C429.22,-84.91 429.22,-103.79 429.22,-103.79"/>
<polygon fill="black" stroke="black" points="425.72,-103.79 429.22,-113.79 432.72,-103.79 425.72,-103.79"/>
</g>
<!-- CoreModule -->
<g id="node4" class="node">
<title>CoreModule</title>
<polygon fill="#8dd3c7" stroke="black" points="389.26,-84.8 386.26,-88.8 365.26,-88.8 362.26,-84.8 302.74,-84.8 302.74,-48.8 389.26,-48.8 389.26,-84.8"/>
<text text-anchor="middle" x="346" y="-62.6" font-family="Times,serif" font-size="14.00">CoreModule</text>
</g>
<!-- CoreModule&#45;&gt;AppModule -->
<g id="edge3" class="edge">
<title>CoreModule&#45;&gt;AppModule</title>
<path fill="none" stroke="black" d="M378.28,-84.91C378.28,-84.91 378.28,-103.79 378.28,-103.79"/>
<polygon fill="black" stroke="black" points="374.78,-103.79 378.28,-113.79 381.78,-103.79 374.78,-103.79"/>
</g>
<!-- MapModule -->
<g id="node5" class="node">
<title>MapModule</title>
<polygon fill="#8dd3c7" stroke="black" points="284.71,-84.8 281.71,-88.8 260.71,-88.8 257.71,-84.8 199.29,-84.8 199.29,-48.8 284.71,-48.8 284.71,-84.8"/>
<text text-anchor="middle" x="242" y="-62.6" font-family="Times,serif" font-size="14.00">MapModule</text>
</g>
<!-- MapModule&#45;&gt;AppModule -->
<g id="edge4" class="edge">
<title>MapModule&#45;&gt;AppModule</title>
<path fill="none" stroke="black" d="M242,-84.82C242,-102.17 242,-125.8 242,-125.8 242,-125.8 357.29,-125.8 357.29,-125.8"/>
<polygon fill="black" stroke="black" points="357.29,-129.3 367.29,-125.8 357.29,-122.3 357.29,-129.3"/>
</g>
<!-- MarkdownModalModule -->
<g id="node6" class="node">
<title>MarkdownModalModule</title>
<polygon fill="#8dd3c7" stroke="black" points="181.53,-84.8 178.53,-88.8 157.53,-88.8 154.53,-84.8 24.47,-84.8 24.47,-48.8 181.53,-48.8 181.53,-84.8"/>
<text text-anchor="middle" x="103" y="-62.6" font-family="Times,serif" font-size="14.00">MarkdownModalModule</text>
</g>
<!-- MarkdownModalModule&#45;&gt;AppModule -->
<g id="edge5" class="edge">
<title>MarkdownModalModule&#45;&gt;AppModule</title>
<path fill="none" stroke="black" d="M103,-85.08C103,-106.12 103,-137.8 103,-137.8 103,-137.8 357.09,-137.8 357.09,-137.8"/>
<polygon fill="black" stroke="black" points="357.09,-141.3 367.09,-137.8 357.09,-134.3 357.09,-141.3"/>
</g>
<!-- MapDataService -->
<g id="node8" class="node">
<title>MapDataService</title>
<ellipse fill="#fdb462" stroke="black" cx="636" cy="-66.8" rx="75.84" ry="18"/>
<text text-anchor="middle" x="636" y="-62.6" font-family="Times,serif" font-size="14.00">MapDataService</text>
</g>
<!-- MapDataService&#45;&gt;AppModule -->
<g id="edge7" class="edge">
<title>MapDataService&#45;&gt;AppModule</title>
<path fill="none" stroke="black" d="M636,-84.82C636,-102.17 636,-125.8 636,-125.8 636,-125.8 460.9,-125.8 460.9,-125.8"/>
<polygon fill="black" stroke="black" points="460.9,-122.3 450.9,-125.8 460.9,-129.3 460.9,-122.3"/>
</g>
</g>
</svg>
