<?xml version="1.0" encoding="UTF-8" standalone="no"?>
<!DOCTYPE svg PUBLIC "-//W3C//DTD SVG 1.1//EN"
 "http://www.w3.org/Graphics/SVG/1.1/DTD/svg11.dtd">
<!-- Generated by graphviz version 2.47.3 (20210619.1520)
 -->
<!-- Title: dependencies Pages: 1 -->
<svg width="874pt" height="247pt"
 viewBox="0.00 0.00 874.00 246.80" xmlns="http://www.w3.org/2000/svg" xmlns:xlink="http://www.w3.org/1999/xlink">
<g id="graph0" class="graph" transform="scale(1 1) rotate(0) translate(4 242.8)">
<title>dependencies</title>
<polygon fill="white" stroke="transparent" points="-4,4 -4,-242.8 870,-242.8 870,4 -4,4"/>
<text text-anchor="middle" x="433" y="-8.2" font-family="sans-serif" font-size="14.00">dependencies</text>
<g id="clust1" class="cluster">
<title>cluster_AppModule</title>
<polygon fill="none" stroke="black" stroke-dasharray="1,5" points="8,-32.8 8,-230.8 858,-230.8 858,-32.8 8,-32.8"/>
</g>
<g id="clust4" class="cluster">
<title>cluster_AppModule_imports</title>
<polygon fill="none" stroke="black" points="322,-40.8 322,-92.8 850,-92.8 850,-40.8 322,-40.8"/>
</g>
<g id="clust7" class="cluster">
<title>cluster_AppModule_providers</title>
<polygon fill="none" stroke="black" points="146,-40.8 146,-92.8 314,-92.8 314,-40.8 146,-40.8"/>
</g>
<g id="clust6" class="cluster">
<title>cluster_AppModule_bootstrap</title>
<polygon fill="none" stroke="black" points="416,-170.8 416,-222.8 540,-222.8 540,-170.8 416,-170.8"/>
</g>
<g id="clust2" class="cluster">
<title>cluster_AppModule_declarations</title>
<polygon fill="none" stroke="black" points="16,-40.8 16,-92.8 138,-92.8 138,-40.8 16,-40.8"/>
</g>
<!-- AppComponent -->
<g id="node1" class="node">
<title>AppComponent</title>
<polygon fill="#ffffb3" stroke="black" points="129.94,-84.8 24.06,-84.8 24.06,-48.8 129.94,-48.8 129.94,-84.8"/>
<text text-anchor="middle" x="77" y="-62.6" font-family="Times,serif" font-size="14.00">AppComponent</text>
</g>
<!-- AppModule -->
<g id="node2" class="node">
<title>AppModule</title>
<polygon fill="#8dd3c7" stroke="black" points="519.66,-149.8 516.66,-153.8 495.66,-153.8 492.66,-149.8 436.34,-149.8 436.34,-113.8 519.66,-113.8 519.66,-149.8"/>
<text text-anchor="middle" x="478" y="-127.6" font-family="Times,serif" font-size="14.00">AppModule</text>
</g>
<!-- AppComponent&#45;&gt;AppModule -->
<g id="edge1" class="edge">
<title>AppComponent&#45;&gt;AppModule</title>
<path fill="none" stroke="black" d="M77,-85.08C77,-106.12 77,-137.8 77,-137.8 77,-137.8 426.22,-137.8 426.22,-137.8"/>
<polygon fill="black" stroke="black" points="426.22,-141.3 436.22,-137.8 426.22,-134.3 426.22,-141.3"/>
</g>
<!-- AppComponent  -->
<g id="node7" class="node">
<title>AppComponent </title>
<polygon fill="#80b1d3" stroke="black" points="532.44,-214.8 423.56,-214.8 423.56,-178.8 532.44,-178.8 532.44,-214.8"/>
<text text-anchor="middle" x="478" y="-192.6" font-family="Times,serif" font-size="14.00">AppComponent </text>
</g>
<!-- AppModule&#45;&gt;AppComponent  -->
<g id="edge6" class="edge">
<title>AppModule&#45;&gt;AppComponent </title>
<path fill="none" stroke="black" stroke-dasharray="1,5" d="M478,-149.91C478,-149.91 478,-168.79 478,-168.79"/>
<polygon fill="black" stroke="black" points="474.5,-168.79 478,-178.79 481.5,-168.79 474.5,-168.79"/>
</g>
<!-- AppRoutingModule -->
<g id="node3" class="node">
<title>AppRoutingModule</title>
<polygon fill="#8dd3c7" stroke="black" points="842.27,-84.8 839.27,-88.8 818.27,-88.8 815.27,-84.8 713.73,-84.8 713.73,-48.8 842.27,-48.8 842.27,-84.8"/>
<text text-anchor="middle" x="778" y="-62.6" font-family="Times,serif" font-size="14.00">AppRoutingModule</text>
</g>
<!-- AppRoutingModule&#45;&gt;AppModule -->
<g id="edge2" class="edge">
<title>AppRoutingModule&#45;&gt;AppModule</title>
<path fill="none" stroke="black" d="M778,-85.08C778,-106.12 778,-137.8 778,-137.8 778,-137.8 529.71,-137.8 529.71,-137.8"/>
<polygon fill="black" stroke="black" points="529.71,-134.3 519.71,-137.8 529.71,-141.3 529.71,-134.3"/>
</g>
<!-- CoreModule -->
<g id="node4" class="node">
<title>CoreModule</title>
<polygon fill="#8dd3c7" stroke="black" points="695.26,-84.8 692.26,-88.8 671.26,-88.8 668.26,-84.8 608.74,-84.8 608.74,-48.8 695.26,-48.8 695.26,-84.8"/>
<text text-anchor="middle" x="652" y="-62.6" font-family="Times,serif" font-size="14.00">CoreModule</text>
</g>
<!-- CoreModule&#45;&gt;AppModule -->
<g id="edge3" class="edge">
<title>CoreModule&#45;&gt;AppModule</title>
<path fill="none" stroke="black" d="M652,-84.82C652,-102.17 652,-125.8 652,-125.8 652,-125.8 529.68,-125.8 529.68,-125.8"/>
<polygon fill="black" stroke="black" points="529.68,-122.3 519.68,-125.8 529.68,-129.3 529.68,-122.3"/>
</g>
<!-- MapModule -->
<g id="node5" class="node">
<title>MapModule</title>
<polygon fill="#8dd3c7" stroke="black" points="590.71,-84.8 587.71,-88.8 566.71,-88.8 563.71,-84.8 505.29,-84.8 505.29,-48.8 590.71,-48.8 590.71,-84.8"/>
<text text-anchor="middle" x="548" y="-62.6" font-family="Times,serif" font-size="14.00">MapModule</text>
</g>
<!-- MapModule&#45;&gt;AppModule -->
<g id="edge4" class="edge">
<title>MapModule&#45;&gt;AppModule</title>
<path fill="none" stroke="black" d="M512.61,-84.91C512.61,-84.91 512.61,-103.79 512.61,-103.79"/>
<polygon fill="black" stroke="black" points="509.11,-103.79 512.61,-113.79 516.11,-103.79 509.11,-103.79"/>
</g>
<!-- MarkdownModalModule -->
<g id="node6" class="node">
<title>MarkdownModalModule</title>
<polygon fill="#8dd3c7" stroke="black" points="487.53,-84.8 484.53,-88.8 463.53,-88.8 460.53,-84.8 330.47,-84.8 330.47,-48.8 487.53,-48.8 487.53,-84.8"/>
<text text-anchor="middle" x="409" y="-62.6" font-family="Times,serif" font-size="14.00">MarkdownModalModule</text>
</g>
<!-- MarkdownModalModule&#45;&gt;AppModule -->
<g id="edge5" class="edge">
<title>MarkdownModalModule&#45;&gt;AppModule</title>
<path fill="none" stroke="black" d="M461.97,-84.91C461.97,-84.91 461.97,-103.79 461.97,-103.79"/>
<polygon fill="black" stroke="black" points="458.47,-103.79 461.97,-113.79 465.47,-103.79 458.47,-103.79"/>
</g>
<!-- MapDataService -->
<g id="node8" class="node">
<title>MapDataService</title>
<ellipse fill="#fdb462" stroke="black" cx="230" cy="-66.8" rx="75.84" ry="18"/>
<text text-anchor="middle" x="230" y="-62.6" font-family="Times,serif" font-size="14.00">MapDataService</text>
</g>
<!-- MapDataService&#45;&gt;AppModule -->
<g id="edge7" class="edge">
<title>MapDataService&#45;&gt;AppModule</title>
<path fill="none" stroke="black" d="M230,-84.82C230,-102.17 230,-125.8 230,-125.8 230,-125.8 426.21,-125.8 426.21,-125.8"/>
<polygon fill="black" stroke="black" points="426.21,-129.3 436.21,-125.8 426.21,-122.3 426.21,-129.3"/>
</g>
</g>
</svg>
