<?xml version="1.0" encoding="UTF-8" standalone="no"?>
<!DOCTYPE svg PUBLIC "-//W3C//DTD SVG 1.1//EN"
 "http://www.w3.org/Graphics/SVG/1.1/DTD/svg11.dtd">
<!-- Generated by graphviz version 2.47.3 (20210619.1520)
 -->
<!-- Title: dependencies Pages: 1 -->
<svg width="418pt" height="247pt"
 viewBox="0.00 0.00 418.00 246.80" xmlns="http://www.w3.org/2000/svg" xmlns:xlink="http://www.w3.org/1999/xlink">
<g id="graph0" class="graph" transform="scale(1 1) rotate(0) translate(4 242.8)">
<title>dependencies</title>
<polygon fill="white" stroke="transparent" points="-4,4 -4,-242.8 414,-242.8 414,4 -4,4"/>
<text text-anchor="middle" x="205" y="-8.2" font-family="sans-serif" font-size="14.00">dependencies</text>
<g id="clust1" class="cluster">
<title>cluster_ContentModule</title>
<polygon fill="none" stroke="black" stroke-dasharray="1,5" points="8,-32.8 8,-230.8 402,-230.8 402,-32.8 8,-32.8"/>
</g>
<g id="clust4" class="cluster">
<title>cluster_ContentModule_imports</title>
<polygon fill="none" stroke="black" points="166,-40.8 166,-92.8 394,-92.8 394,-40.8 166,-40.8"/>
</g>
<g id="clust5" class="cluster">
<title>cluster_ContentModule_exports</title>
<polygon fill="none" stroke="black" points="155,-170.8 155,-222.8 301,-222.8 301,-170.8 155,-170.8"/>
</g>
<g id="clust2" class="cluster">
<title>cluster_ContentModule_declarations</title>
<polygon fill="none" stroke="black" points="16,-40.8 16,-92.8 158,-92.8 158,-40.8 16,-40.8"/>
</g>
<!-- ContentComponent -->
<g id="node1" class="node">
<title>ContentComponent</title>
<polygon fill="#ffffb3" stroke="black" points="149.67,-84.8 24.33,-84.8 24.33,-48.8 149.67,-48.8 149.67,-84.8"/>
<text text-anchor="middle" x="87" y="-62.6" font-family="Times,serif" font-size="14.00">ContentComponent</text>
</g>
<!-- ContentModule -->
<g id="node2" class="node">
<title>ContentModule</title>
<polygon fill="#8dd3c7" stroke="black" points="279.88,-149.8 276.88,-153.8 255.88,-153.8 252.88,-149.8 176.12,-149.8 176.12,-113.8 279.88,-113.8 279.88,-149.8"/>
<text text-anchor="middle" x="228" y="-127.6" font-family="Times,serif" font-size="14.00">ContentModule</text>
</g>
<!-- ContentComponent&#45;&gt;ContentModule -->
<g id="edge1" class="edge">
<title>ContentComponent&#45;&gt;ContentModule</title>
<path fill="none" stroke="black" d="M87,-84.91C87,-104.14 87,-131.8 87,-131.8 87,-131.8 165.9,-131.8 165.9,-131.8"/>
<polygon fill="black" stroke="black" points="165.9,-135.3 175.9,-131.8 165.9,-128.3 165.9,-135.3"/>
</g>
<!-- ContentComponent  -->
<g id="node5" class="node">
<title>ContentComponent </title>
<polygon fill="#fb8072" stroke="black" points="292.66,-214.8 163.34,-214.8 163.34,-178.8 292.66,-178.8 292.66,-214.8"/>
<text text-anchor="middle" x="228" y="-192.6" font-family="Times,serif" font-size="14.00">ContentComponent </text>
</g>
<!-- ContentModule&#45;&gt;ContentComponent  -->
<g id="edge4" class="edge">
<title>ContentModule&#45;&gt;ContentComponent </title>
<path fill="none" stroke="black" stroke-dasharray="5,2" d="M228,-149.91C228,-149.91 228,-168.79 228,-168.79"/>
<polygon fill="black" stroke="black" points="224.5,-168.79 228,-178.79 231.5,-168.79 224.5,-168.79"/>
</g>
<!-- MapModule -->
<g id="node3" class="node">
<title>MapModule</title>
<polygon fill="#8dd3c7" stroke="black" points="385.71,-84.8 382.71,-88.8 361.71,-88.8 358.71,-84.8 300.29,-84.8 300.29,-48.8 385.71,-48.8 385.71,-84.8"/>
<text text-anchor="middle" x="343" y="-62.6" font-family="Times,serif" font-size="14.00">MapModule</text>
</g>
<!-- MapModule&#45;&gt;ContentModule -->
<g id="edge2" class="edge">
<title>MapModule&#45;&gt;ContentModule</title>
<path fill="none" stroke="black" d="M343,-84.91C343,-104.14 343,-131.8 343,-131.8 343,-131.8 290.12,-131.8 290.12,-131.8"/>
<polygon fill="black" stroke="black" points="290.12,-128.3 280.12,-131.8 290.12,-135.3 290.12,-128.3"/>
</g>
<!-- NetworkModule -->
<g id="node4" class="node">
<title>NetworkModule</title>
<polygon fill="#8dd3c7" stroke="black" points="282.03,-84.8 279.03,-88.8 258.03,-88.8 255.03,-84.8 173.97,-84.8 173.97,-48.8 282.03,-48.8 282.03,-84.8"/>
<text text-anchor="middle" x="228" y="-62.6" font-family="Times,serif" font-size="14.00">NetworkModule</text>
</g>
<!-- NetworkModule&#45;&gt;ContentModule -->
<g id="edge3" class="edge">
<title>NetworkModule&#45;&gt;ContentModule</title>
<path fill="none" stroke="black" d="M228,-84.91C228,-84.91 228,-103.79 228,-103.79"/>
<polygon fill="black" stroke="black" points="224.5,-103.79 228,-113.79 231.5,-103.79 224.5,-103.79"/>
</g>
</g>
</svg>
