<?xml version="1.0" encoding="UTF-8" standalone="no"?>
<!DOCTYPE svg PUBLIC "-//W3C//DTD SVG 1.1//EN"
 "http://www.w3.org/Graphics/SVG/1.1/DTD/svg11.dtd">
<!-- Generated by graphviz version 2.47.3 (20210619.1520)
 -->
<!-- Title: dependencies Pages: 1 -->
<svg width="533pt" height="247pt"
 viewBox="0.00 0.00 533.00 246.80" xmlns="http://www.w3.org/2000/svg" xmlns:xlink="http://www.w3.org/1999/xlink">
<g id="graph0" class="graph" transform="scale(1 1) rotate(0) translate(4 242.8)">
<title>dependencies</title>
<polygon fill="white" stroke="transparent" points="-4,4 -4,-242.8 529,-242.8 529,4 -4,4"/>
<text text-anchor="middle" x="262.5" y="-8.2" font-family="sans-serif" font-size="14.00">dependencies</text>
<g id="clust1" class="cluster">
<title>cluster_FooterModule</title>
<polygon fill="none" stroke="black" stroke-dasharray="1,5" points="8,-32.8 8,-230.8 517,-230.8 517,-32.8 8,-32.8"/>
</g>
<g id="clust2" class="cluster">
<title>cluster_FooterModule_declarations</title>
<polygon fill="none" stroke="black" points="375,-40.8 375,-92.8 509,-92.8 509,-40.8 375,-40.8"/>
</g>
<g id="clust4" class="cluster">
<title>cluster_FooterModule_imports</title>
<polygon fill="none" stroke="black" points="16,-40.8 16,-92.8 367,-92.8 367,-40.8 16,-40.8"/>
</g>
<g id="clust5" class="cluster">
<title>cluster_FooterModule_exports</title>
<polygon fill="none" stroke="black" points="210,-170.8 210,-222.8 348,-222.8 348,-170.8 210,-170.8"/>
</g>
<!-- FooterComponent -->
<g id="node1" class="node">
<title>FooterComponent</title>
<polygon fill="#ffffb3" stroke="black" points="500.88,-84.8 383.12,-84.8 383.12,-48.8 500.88,-48.8 500.88,-84.8"/>
<text text-anchor="middle" x="442" y="-62.6" font-family="Times,serif" font-size="14.00">FooterComponent</text>
</g>
<!-- FooterModule -->
<g id="node2" class="node">
<title>FooterModule</title>
<polygon fill="#8dd3c7" stroke="black" points="327.1,-149.8 324.1,-153.8 303.1,-153.8 300.1,-149.8 230.9,-149.8 230.9,-113.8 327.1,-113.8 327.1,-149.8"/>
<text text-anchor="middle" x="279" y="-127.6" font-family="Times,serif" font-size="14.00">FooterModule</text>
</g>
<!-- FooterComponent&#45;&gt;FooterModule -->
<g id="edge1" class="edge">
<title>FooterComponent&#45;&gt;FooterModule</title>
<path fill="none" stroke="black" d="M442,-84.91C442,-104.14 442,-131.8 442,-131.8 442,-131.8 337.46,-131.8 337.46,-131.8"/>
<polygon fill="black" stroke="black" points="337.46,-128.3 327.46,-131.8 337.46,-135.3 337.46,-128.3"/>
</g>
<!-- FooterComponent  -->
<g id="node5" class="node">
<title>FooterComponent </title>
<polygon fill="#fb8072" stroke="black" points="339.88,-214.8 218.12,-214.8 218.12,-178.8 339.88,-178.8 339.88,-214.8"/>
<text text-anchor="middle" x="279" y="-192.6" font-family="Times,serif" font-size="14.00">FooterComponent </text>
</g>
<!-- FooterModule&#45;&gt;FooterComponent  -->
<g id="edge4" class="edge">
<title>FooterModule&#45;&gt;FooterComponent </title>
<path fill="none" stroke="black" stroke-dasharray="5,2" d="M279,-149.91C279,-149.91 279,-168.79 279,-168.79"/>
<polygon fill="black" stroke="black" points="275.5,-168.79 279,-178.79 282.5,-168.79 275.5,-168.79"/>
</g>
<!-- AnalyticsConsentModule -->
<g id="node3" class="node">
<title>AnalyticsConsentModule</title>
<polygon fill="#8dd3c7" stroke="black" points="358.59,-84.8 355.59,-88.8 334.59,-88.8 331.59,-84.8 199.41,-84.8 199.41,-48.8 358.59,-48.8 358.59,-84.8"/>
<text text-anchor="middle" x="279" y="-62.6" font-family="Times,serif" font-size="14.00">AnalyticsConsentModule</text>
</g>
<!-- AnalyticsConsentModule&#45;&gt;FooterModule -->
<g id="edge2" class="edge">
<title>AnalyticsConsentModule&#45;&gt;FooterModule</title>
<path fill="none" stroke="black" d="M279,-84.91C279,-84.91 279,-103.79 279,-103.79"/>
<polygon fill="black" stroke="black" points="275.5,-103.79 279,-113.79 282.5,-103.79 275.5,-103.79"/>
</g>
<!-- MarkdownModalModule -->
<g id="node4" class="node">
<title>MarkdownModalModule</title>
<polygon fill="#8dd3c7" stroke="black" points="181.53,-84.8 178.53,-88.8 157.53,-88.8 154.53,-84.8 24.47,-84.8 24.47,-48.8 181.53,-48.8 181.53,-84.8"/>
<text text-anchor="middle" x="103" y="-62.6" font-family="Times,serif" font-size="14.00">MarkdownModalModule</text>
</g>
<!-- MarkdownModalModule&#45;&gt;FooterModule -->
<g id="edge3" class="edge">
<title>MarkdownModalModule&#45;&gt;FooterModule</title>
<path fill="none" stroke="black" d="M103,-84.91C103,-104.14 103,-131.8 103,-131.8 103,-131.8 220.91,-131.8 220.91,-131.8"/>
<polygon fill="black" stroke="black" points="220.91,-135.3 230.91,-131.8 220.91,-128.3 220.91,-135.3"/>
</g>
</g>
</svg>
