<?xml version="1.0" encoding="UTF-8" standalone="no"?>
<!DOCTYPE svg PUBLIC "-//W3C//DTD SVG 1.1//EN"
 "http://www.w3.org/Graphics/SVG/1.1/DTD/svg11.dtd">
<!-- Generated by graphviz version 2.47.3 (20210619.1520)
 -->
<!-- Title: dependencies Pages: 1 -->
<svg width="533pt" height="247pt"
 viewBox="0.00 0.00 533.00 246.80" xmlns="http://www.w3.org/2000/svg" xmlns:xlink="http://www.w3.org/1999/xlink">
<g id="graph0" class="graph" transform="scale(1 1) rotate(0) translate(4 242.8)">
<title>dependencies</title>
<polygon fill="white" stroke="transparent" points="-4,4 -4,-242.8 529,-242.8 529,4 -4,4"/>
<text text-anchor="middle" x="262.5" y="-8.2" font-family="sans-serif" font-size="14.00">dependencies</text>
<g id="clust1" class="cluster">
<title>cluster_FooterModule</title>
<polygon fill="none" stroke="black" stroke-dasharray="1,5" points="8,-32.8 8,-230.8 517,-230.8 517,-32.8 8,-32.8"/>
</g>
<g id="clust4" class="cluster">
<title>cluster_FooterModule_imports</title>
<polygon fill="none" stroke="black" points="158,-40.8 158,-92.8 509,-92.8 509,-40.8 158,-40.8"/>
</g>
<g id="clust5" class="cluster">
<title>cluster_FooterModule_exports</title>
<polygon fill="none" stroke="black" points="176,-170.8 176,-222.8 314,-222.8 314,-170.8 176,-170.8"/>
</g>
<g id="clust2" class="cluster">
<title>cluster_FooterModule_declarations</title>
<polygon fill="none" stroke="black" points="16,-40.8 16,-92.8 150,-92.8 150,-40.8 16,-40.8"/>
</g>
<!-- FooterComponent -->
<g id="node1" class="node">
<title>FooterComponent</title>
<polygon fill="#ffffb3" stroke="black" points="141.88,-84.8 24.12,-84.8 24.12,-48.8 141.88,-48.8 141.88,-84.8"/>
<text text-anchor="middle" x="83" y="-62.6" font-family="Times,serif" font-size="14.00">FooterComponent</text>
</g>
<!-- FooterModule -->
<g id="node2" class="node">
<title>FooterModule</title>
<polygon fill="#8dd3c7" stroke="black" points="293.1,-149.8 290.1,-153.8 269.1,-153.8 266.1,-149.8 196.9,-149.8 196.9,-113.8 293.1,-113.8 293.1,-149.8"/>
<text text-anchor="middle" x="245" y="-127.6" font-family="Times,serif" font-size="14.00">FooterModule</text>
</g>
<!-- FooterComponent&#45;&gt;FooterModule -->
<g id="edge1" class="edge">
<title>FooterComponent&#45;&gt;FooterModule</title>
<path fill="none" stroke="black" d="M83,-84.91C83,-104.14 83,-131.8 83,-131.8 83,-131.8 186.83,-131.8 186.83,-131.8"/>
<polygon fill="black" stroke="black" points="186.83,-135.3 196.83,-131.8 186.83,-128.3 186.83,-135.3"/>
</g>
<!-- FooterComponent  -->
<g id="node5" class="node">
<title>FooterComponent </title>
<polygon fill="#fb8072" stroke="black" points="305.88,-214.8 184.12,-214.8 184.12,-178.8 305.88,-178.8 305.88,-214.8"/>
<text text-anchor="middle" x="245" y="-192.6" font-family="Times,serif" font-size="14.00">FooterComponent </text>
</g>
<!-- FooterModule&#45;&gt;FooterComponent  -->
<g id="edge4" class="edge">
<title>FooterModule&#45;&gt;FooterComponent </title>
<path fill="none" stroke="black" stroke-dasharray="5,2" d="M245,-149.91C245,-149.91 245,-168.79 245,-168.79"/>
<polygon fill="black" stroke="black" points="241.5,-168.79 245,-178.79 248.5,-168.79 241.5,-168.79"/>
</g>
<!-- AnalyticsConsentModule -->
<g id="node3" class="node">
<title>AnalyticsConsentModule</title>
<polygon fill="#8dd3c7" stroke="black" points="500.59,-84.8 497.59,-88.8 476.59,-88.8 473.59,-84.8 341.41,-84.8 341.41,-48.8 500.59,-48.8 500.59,-84.8"/>
<text text-anchor="middle" x="421" y="-62.6" font-family="Times,serif" font-size="14.00">AnalyticsConsentModule</text>
</g>
<!-- AnalyticsConsentModule&#45;&gt;FooterModule -->
<g id="edge2" class="edge">
<title>AnalyticsConsentModule&#45;&gt;FooterModule</title>
<path fill="none" stroke="black" d="M421,-84.91C421,-104.14 421,-131.8 421,-131.8 421,-131.8 303.09,-131.8 303.09,-131.8"/>
<polygon fill="black" stroke="black" points="303.09,-128.3 293.09,-131.8 303.09,-135.3 303.09,-128.3"/>
</g>
<!-- MarkdownModalModule -->
<g id="node4" class="node">
<title>MarkdownModalModule</title>
<polygon fill="#8dd3c7" stroke="black" points="323.53,-84.8 320.53,-88.8 299.53,-88.8 296.53,-84.8 166.47,-84.8 166.47,-48.8 323.53,-48.8 323.53,-84.8"/>
<text text-anchor="middle" x="245" y="-62.6" font-family="Times,serif" font-size="14.00">MarkdownModalModule</text>
</g>
<!-- MarkdownModalModule&#45;&gt;FooterModule -->
<g id="edge3" class="edge">
<title>MarkdownModalModule&#45;&gt;FooterModule</title>
<path fill="none" stroke="black" d="M245,-84.91C245,-84.91 245,-103.79 245,-103.79"/>
<polygon fill="black" stroke="black" points="241.5,-103.79 245,-113.79 248.5,-103.79 241.5,-103.79"/>
</g>
</g>
</svg>
